<?xml version="1.0" encoding="utf-8"?>
<svg xmlns="http://www.w3.org/2000/svg" xmlns:xlink="http://www.w3.org/1999/xlink" version="1.1" style="width:0;height:0;position:absolute;overflow:hidden;">
  <defs>
<symbol viewBox="0 0 940.6666870117188 1177" aria-labelledby="ahsi-bootstrap-arrow-down-title" id="si-bootstrap-arrow-down"><title id="ahsi-bootstrap-arrow-down-title">icon arrow-down</title><path d="M370.333 0h200q21 0 35.5 14.5t14.5 35.5v550h291q21 0 26 11.5t-8 27.5l-427 522q-13 16-32 16t-32-16l-427-522q-13-16-8-27.5t26-11.5h291V50q0-21 14.5-35.5t35.5-14.5z"/></symbol>
<symbol viewBox="0 0 1177 940.6666870117188" aria-labelledby="aisi-bootstrap-arrow-left-title" id="si-bootstrap-arrow-left"><title id="aisi-bootstrap-arrow-left-title">icon arrow-left</title><path d="M16 438.333l522-427q16-13 27.5-8t11.5 26v291h550q21 0 35.5 14.5t14.5 35.5v200q0 21-14.5 35.5t-35.5 14.5H577v291q0 21-11.5 26t-27.5-8l-522-427q-16-13-16-32t16-32z"/></symbol>
<symbol viewBox="0 0 1177 940.6666870117188" aria-labelledby="ajsi-bootstrap-arrow-right-title" id="si-bootstrap-arrow-right"><title id="ajsi-bootstrap-arrow-right-title">icon arrow-right</title><path d="M639 11.333l522 427q16 13 16 32t-16 32l-522 427q-16 13-27.5 8t-11.5-26v-291H50q-21 0-35.5-14.5T0 570.333v-200q0-21 14.5-35.5t35.5-14.5h550v-291q0-21 11.5-26t27.5 8z"/></symbol>
<symbol viewBox="0 0 940.6666870117188 1177" aria-labelledby="aksi-bootstrap-arrow-up-title" id="si-bootstrap-arrow-up"><title id="aksi-bootstrap-arrow-up-title">icon arrow-up</title><path d="M502.333 16l427 522q13 16 8 27.5t-26 11.5h-291v550q0 21-14.5 35.5t-35.5 14.5h-200q-21 0-35.5-14.5t-14.5-35.5V577h-291q-21 0-26-11.5t8-27.5l427-522q13-16 32-16t32 16z"/></symbol>
<symbol viewBox="0 0 1101 750" aria-labelledby="bfsi-bootstrap-chevron-down-title" id="si-bootstrap-chevron-down"><title id="bfsi-bootstrap-chevron-down-title">icon chevron-down</title><path d="M1101 199L551 750 0 199 198 0l353 353L904 0z"/></symbol>
<symbol viewBox="0 0 749 1102" aria-labelledby="bgsi-bootstrap-chevron-left-title" id="si-bootstrap-chevron-left"><title id="bgsi-bootstrap-chevron-left-title">icon chevron-left</title><path d="M749 198L397 551l352 353-197 198L0 550 552 0z"/></symbol>
<symbol viewBox="0 0 749 1102" aria-labelledby="bhsi-bootstrap-chevron-right-title" id="si-bootstrap-chevron-right"><title id="bhsi-bootstrap-chevron-right-title">icon chevron-right</title><path d="M749 551l-551 551L0 904l353-353L0 198 198 0z"/></symbol>
<symbol viewBox="0 0 1101 750" aria-labelledby="bisi-bootstrap-chevron-up-title" id="si-bootstrap-chevron-up"><title id="bisi-bootstrap-chevron-up-title">icon chevron-up</title><path d="M1101 551L903 750 550 397 197 750 0 551 551 0z"/></symbol>
<symbol viewBox="0 0 1192 1064" aria-labelledby="bvsi-bootstrap-console-title" id="si-bootstrap-console"><title id="bvsi-bootstrap-console-title">icon console</title><path d="M692 323v182L0 828V607l413-193L0 221V0zm500 741H392V864h800v200z"/></symbol>
<symbol viewBox="0 0 1300 1100" aria-labelledby="efsi-bootstrap-indent-left-title" id="si-bootstrap-indent-left"><title id="efsi-bootstrap-indent-left-title">icon indent-left</title><path d="M500 1100H400V0h100v1100zM650 0h100q21 0 35.5 14.5T800 50v100q0 21-14.5 35.5T750 200H650q-21 0-35.5-14.5T600 150V50q0-21 14.5-35.5T650 0zm0 300h500q21 0 35.5 14.5T1200 350v100q0 21-14.5 35.5T1150 500H650q-21 0-35.5-14.5T600 450V350q0-21 14.5-35.5T650 300zM367 550L200 675v-75H0V500h200v-75zm283 50h300q21 0 35.5 14.5T1000 650v100q0 21-14.5 35.5T950 800H650q-21 0-35.5-14.5T600 750V650q0-21 14.5-35.5T650 600zm0 300h600q21 0 35.5 14.5T1300 950v100q0 21-14.5 35.5T1250 1100H650q-21 0-35.5-14.5T600 1050V950q0-21 14.5-35.5T650 900z"/></symbol>
<symbol viewBox="0 0 1300 1100" aria-labelledby="egsi-bootstrap-indent-right-title" id="si-bootstrap-indent-right"><title id="egsi-bootstrap-indent-right-title">icon indent-right</title><path d="M50 0h100q21 0 35.5 14.5T200 50v100q0 21-14.5 35.5T150 200H50q-21 0-35.5-14.5T0 150V50q0-21 14.5-35.5T50 0zm850 1100H800V0h100v1100zM50 300h500q21 0 35.5 14.5T600 350v100q0 21-14.5 35.5T550 500H50q-21 0-35.5-14.5T0 450V350q0-21 14.5-35.5T50 300zm1050 200h200v100h-200v75L933 550l167-125v75zM50 600h300q21 0 35.5 14.5T400 650v100q0 21-14.5 35.5T350 800H50q-21 0-35.5-14.5T0 750V650q0-21 14.5-35.5T50 600zm0 300h600q21 0 35.5 14.5T700 950v100q0 21-14.5 35.5T650 1100H50q-21 0-35.5-14.5T0 1050V950q0-21 14.5-35.5T50 900z"/></symbol>
<symbol viewBox="0 0 996 685.3333129882812" aria-labelledby="ewsi-bootstrap-menu-down-title" id="si-bootstrap-menu-down"><title id="ewsi-bootstrap-menu-down-title">icon menu-down</title><path d="M985 3.333q11 5 11 21v160q0 13-9 23l-471 471q-8 7-18 7t-18-7l-471-471q-9-10-9-23v-160q0-16 11-21t23 7l464 464 464-464q12-12 23-7z"/></symbol>
<symbol viewBox="0 0 685.3333740234375 996" aria-labelledby="eysi-bootstrap-menu-left-title" id="si-bootstrap-menu-left"><title id="eysi-bootstrap-menu-left-title">icon menu-left</title><path d="M501 0h160q16 0 21 11t-7 23L211 498l464 464q12 12 7 23t-21 11H501q-13 0-23-9L7 516q-7-8-7-18t7-18L478 9q10-9 23-9z"/></symbol>
<symbol viewBox="0 0 685.3333129882812 996" aria-labelledby="ezsi-bootstrap-menu-right-title" id="si-bootstrap-menu-right"><title id="ezsi-bootstrap-menu-right-title">icon menu-right</title><path d="M24.333 0h160q13 0 23 9l471 471q7 8 7 18t-7 18l-471 471q-10 9-23 9h-160q-16 0-21-11t7-23l464-464-464-464q-12-12-7-23t21-11z"/></symbol>
<symbol viewBox="0 0 996 685.3333740234375" aria-labelledby="fasi-bootstrap-menu-up-title" id="si-bootstrap-menu-up"><title id="fasi-bootstrap-menu-up-title">icon menu-up</title><path d="M516 7l471 471q9 10 9 23v160q0 16-11 21t-23-7L498 211 34 675q-12 12-23 7T0 661V501q0-13 9-23L480 7q8-7 18-7t18 7z"/></symbol>
<symbol viewBox="0 0 1218 1012" aria-labelledby="fpsi-bootstrap-ok-title" id="si-bootstrap-ok"><title id="fpsi-bootstrap-ok-title">icon ok</title><path d="M427 579L998 8q8-8 18-8t17 8l177 177q8 7 8 17t-8 18l-783 784q-7 8-17.5 8t-17.5-8L8 620q-8-8-8-18t8-17l177-177q7-8 17-8t18 8l171 171q7 7 18 7t18-7z"/></symbol>
<symbol viewBox="0 0 1100 300" aria-labelledby="fusi-bootstrap-option-horizontal-title" id="si-bootstrap-option-horizontal"><title id="fusi-bootstrap-option-horizontal-title">icon option-horizontal</title><path d="M150 0q62 0 106 44t44 106-44 106-106 44-106-44T0 150 44 44 150 0zm400 0q62 0 106 44t44 106-44 106-106 44-106-44-44-106 44-106T550 0zm400 0q62 0 106 44t44 106-44 106-106 44-106-44-44-106 44-106T950 0z"/></symbol>
<symbol viewBox="0 0 300 1100" aria-labelledby="fvsi-bootstrap-option-vertical-title" id="si-bootstrap-option-vertical"><title id="fvsi-bootstrap-option-vertical-title">icon option-vertical</title><path d="M150 0q62 0 106 44t44 106-44 106-106 44-106-44T0 150 44 44 150 0zm0 400q62 0 106 44t44 106-44 106-106 44-106-44T0 550t44-106 106-44zm0 400q62 0 106 44t44 106-44 106-106 44-106-44T0 950t44-106 106-44z"/></symbol>
<symbol viewBox="0 0 1154 1154" aria-labelledby="gusi-bootstrap-remove-circle-title" id="si-bootstrap-remove-circle"><title id="gusi-bootstrap-remove-circle-title">icon remove-circle</title><path d="M577 0q117 0 224 45.5t184.5 123 123 184.5 45.5 224-45.5 224-123 184.5-184.5 123-224 45.5-224-45.5-184.5-123T45.5 801 0 577t45.5-224 123-184.5T353 45.5 577 0zm0 150q-116 0-214.5 57T207 362.5 150 577t57 214.5T362.5 947t214.5 57 214.5-57T947 791.5t57-214.5-57-214.5T791.5 207 577 150zm159 204l64 64q7 7 7 17.5t-7 17.5L676 577l124 124q7 7 7 17.5t-7 17.5l-64 64q-7 7-17.5 7t-17.5-7L577 676 453 800q-7 7-17.5 7t-17.5-7l-64-64q-7-7-7-17.5t7-17.5l124-124-124-124q-7-7-7-17.5t7-17.5l64-64q7-7 17.5-7t17.5 7l124 124 124-124q7-7 17.5-7t17.5 7z"/></symbol>
<symbol viewBox="0 0 1154 1154" aria-labelledby="gvsi-bootstrap-remove-sign-title" id="si-bootstrap-remove-sign"><title id="gvsi-bootstrap-remove-sign-title">icon remove-sign</title><path d="M577 0q117 0 224 45.5t184.5 123 123 184.5 45.5 224-45.5 224-123 184.5-184.5 123-224 45.5-224-45.5-184.5-123T45.5 801 0 577t45.5-224 123-184.5T353 45.5 577 0zm141.5 264q-12.5 0-21.5 9L577 393 457 273q-9-9-21.5-9t-21.5 9L273 414q-9 9-9 21.5t9 21.5l120 120-120 120q-9 9-9 21.5t9 21.5l141 141q9 9 21.5 9t21.5-9l120-120 120 120q9 9 21.5 9t21.5-9l141-141q9-9 9-21.5t-9-21.5L761 577l120-120q9-9 9-21.5t-9-21.5L740 273q-9-9-21.5-9z"/></symbol>
<symbol viewBox="0 0 980 980" aria-labelledby="gtsi-bootstrap-remove-title" id="si-bootstrap-remove"><title id="gtsi-bootstrap-remove-title">icon remove</title><path d="M794 7l178 179q8 8 8 18.5t-8 17.5L705 490l267 268q8 7 8 17.5t-8 18.5L794 972q-8 8-18.5 8t-17.5-8L490 705 222 972q-7 8-17.5 8t-18.5-8L8 794q-8-8-8-18.5T8 758l267-268L8 222q-8-7-8-17.5T8 186L186 8q8-8 18.5-8T222 8l268 267L758 7q7-7 17.5-7T794 7z"/></symbol>
<symbol viewBox="0 0 1555.3333740234375 900" aria-labelledby="hbsi-bootstrap-retweet-title" id="si-bootstrap-retweet"><title id="hbsi-bootstrap-retweet-title">icon retweet</title><path d="M581.667 0h746q21 0 35.5 14.5t14.5 35.5v551h150q21 0 25 10.5t-10 24.5l-230 249q-14 15-35 15t-35-15l-230-249q-14-14-10-24.5t25-10.5h150V200h-381zm-269 16l230 249q14 14 10 24.5t-25 10.5h-150v400h385l215 200h-750q-21 0-35.5-14.5t-14.5-35.5V300h-150q-21 0-25-10.5t10-24.5l230-249q14-15 35-15t35 15z"/></symbol>
<symbol viewBox="0 0 1201.8333740234375 1199" aria-labelledby="hlsi-bootstrap-search-title" id="si-bootstrap-search"><title id="hlsi-bootstrap-search-title">icon search</title><path d="M491 0q100 0 191 39t156.5 104.5T943 300t39 191l-1 2 1 5q0 141-78 262l275 274q23 26 22.5 44.5T1179 1121l-59 58q-26 20-46.5 20t-39.5-20L759 905q-119 77-261 77l-5-1-2 1q-100 0-191-39T143.5 838.5 39 682 0 491t39-191 104.5-156.5T300 39 491 0zm0 169q-88 0-162 43T212 329t-43 162 43 162 117 117 162 43 162-43 117-117 43-162-43-162-117-117-162-43z"/></symbol>
<symbol viewBox="0 0 1196 1081.166748046875" aria-labelledby="iesi-bootstrap-star-empty-title" id="si-bootstrap-star-empty"><title id="iesi-bootstrap-star-empty-title">icon star-empty</title><path d="M454 372L585 19q7-19 17.5-19T620 19l129 353h421q21 0 24 8.5t-14 20.5L838 650l130 401q7 20-.5 25.5T943 1070L600 824l-342 247q-17 12-24.5 6.5t-.5-25.5l130-400L16 401q-17-12-14-20.5t23-8.5h429zm70 100H284l197 142-74 226 193-139 195 140-74-229 192-140H679l-78-211z"/></symbol>
<symbol viewBox="0 0 1196 1081.166748046875" aria-labelledby="idsi-bootstrap-star-title" id="si-bootstrap-star"><title id="idsi-bootstrap-star-title">icon star</title><path d="M454 372L585 19q7-19 17.5-19T620 19l129 353h421q21 0 24 8.5t-14 20.5L838 650l130 401q7 20-.5 25.5T943 1070L600 824l-342 247q-17 12-24.5 6.5t-.5-25.5l130-400L16 401q-17-12-14-20.5t23-8.5h429z"/></symbol>
<symbol viewBox="0 0 1198 1198" aria-labelledby="jwsi-bootstrap-zoom-in-title" id="si-bootstrap-zoom-in"><title id="jwsi-bootstrap-zoom-in-title">icon zoom-in</title><path d="M484 0q98 0 187.5 38.5T826 142t103.5 154.5T968 484q0 141-78 262l300 299q8 8 8 18.5t-8 18.5l-109 108q-7 8-17.5 8t-18.5-8L745 891q-119 77-261 77-98 0-188-38.5t-154.5-103T38.5 672 0 484t38.5-187.5 103-154.5T296 38.5 484 0zm-.5 154Q394 154 318 198T198 318.5t-44 166T198 650t120 120 165.5 44 166-44T770 650t44-165.5-44-166T649.5 198t-166-44zM402 277h150q10 0 17.5 7.5T577 302v75h75q10 0 17.5 7.5T677 402v150q0 10-7.5 17.5T652 577h-75v75q0 10-7.5 17.5T552 677H402q-10 0-17.5-7.5T377 652v-75h-75q-10 0-17.5-7.5T277 552V402q0-10 7.5-17.5T302 377h75v-75q0-10 7.5-17.5T402 277z"/></symbol>
<symbol viewBox="0 0 1198 1198" aria-labelledby="jxsi-bootstrap-zoom-out-title" id="si-bootstrap-zoom-out"><title id="jxsi-bootstrap-zoom-out-title">icon zoom-out</title><path d="M484 0q98 0 187.5 38.5T826 142t103.5 154.5T968 484q0 141-78 262l300 299q8 8 8 18.5t-8 18.5l-109 108q-7 8-17.5 8t-18.5-8L745 891q-119 77-261 77-98 0-188-38.5t-154.5-103T38.5 672 0 484t38.5-187.5 103-154.5T296 38.5 484 0zm-.5 154Q394 154 318 198T198 318.5t-44 166T198 650t120 120 165.5 44 166-44T770 650t44-165.5-44-166T649.5 198t-166-44zM302 377h350q10 0 17.5 7.5T677 402v150q0 10-7.5 17.5T652 577H302q-10 0-17.5-7.5T277 552V402q0-10 7.5-17.5T302 377z"/></symbol>
  </defs>
</svg>
