<?xml version="1.0" encoding="utf-8"?>
<svg xmlns="http://www.w3.org/2000/svg" xmlns:xlink="http://www.w3.org/1999/xlink" version="1.1" style="width:0;height:0;position:absolute;overflow:hidden;">
  <defs>
<symbol viewBox="0 0 19.5 11.726000785827637" aria-labelledby="basi-dev-code-title" id="si-dev-code"><title id="basi-dev-code-title">icon code</title><path d="M4.817 0L0 5.863l4.817 5.862 1.139-1.874L2.71 5.862l3.246-3.989zm2.108 11.585h2.114L12.4.108h-2.115zM14.683 0l-1.139 1.874 3.246 3.989-3.246 3.989 1.139 1.874L19.5 5.864z"/></symbol>
<symbol viewBox="0 0 22.60700035095215 26.375" aria-labelledby="bbsi-dev-code_badge-title" id="si-dev-code_badge"><title id="bbsi-dev-code_badge-title">icon code_badge</title><path d="M16.955 0H0v26.375h22.607V5.652L16.955 0zm3.768 24.491H1.884V1.884h13.188l5.652 5.652v16.955zM7.572 8.753l-3.644 4.434 3.644 4.434.862-1.417-2.455-3.017 2.455-3.017zm1.594 8.763h1.599l2.542-8.681h-1.599zm5.868-8.763l-.862 1.418 2.455 3.017-2.455 3.017.862 1.418 3.644-4.434z"/></symbol>
<symbol viewBox="0 0 18.333999633789062 25.6669979095459" aria-labelledby="cmsi-dev-git_branch-title" id="si-dev-git_branch"><title id="cmsi-dev-git_branch-title">icon git_branch</title><path d="M14.669 3.666a3.67 3.67 0 0 0-3.667 3.667c0 1.353.741 2.523 1.833 3.159V11s0 3.667-3.667 3.667c-1.52 0-2.711.326-3.667.825V6.826a3.65 3.65 0 0 0 1.833-3.159C7.334 1.643 5.691 0 3.667 0S0 1.643 0 3.667a3.65 3.65 0 0 0 1.833 3.159v12.016A3.65 3.65 0 0 0 0 22c0 2.023 1.643 3.667 3.667 3.667S7.334 24.023 7.334 22c0-.96-.378-1.826-.981-2.482.534-.655 1.401-1.185 2.815-1.185 7.276 0 7.333-7.333 7.333-7.333v-.508a3.653 3.653 0 0 0 1.833-3.159 3.67 3.67 0 0 0-3.667-3.667zm-11-1.833c1.014 0 1.833.819 1.833 1.833s-.819 1.833-1.833 1.833-1.833-.819-1.833-1.833.819-1.833 1.833-1.833zm0 22A1.832 1.832 0 1 1 5.502 22a1.832 1.832 0 0 1-1.833 1.833zm11-14.667c-1.013 0-1.833-.819-1.833-1.833s.82-1.833 1.833-1.833 1.833.819 1.833 1.833-.82 1.833-1.833 1.833z"/></symbol>
<symbol viewBox="0 0 22.35900115966797 12.7760009765625" aria-labelledby="cnsi-dev-git_commit-title" id="si-dev-git_commit"><title id="cnsi-dev-git_commit-title">icon git_commit</title><path d="M17.34 4.791C16.629 2.041 14.152 0 11.179 0S5.73 2.041 5.018 4.791H0v3.194h5.018c.712 2.751 3.19 4.791 6.161 4.791s5.45-2.04 6.161-4.791h5.019V4.791H17.34zm-6.161 4.791c-1.763 0-3.194-1.432-3.194-3.194s1.431-3.194 3.194-3.194c1.762 0 3.194 1.431 3.194 3.194s-1.432 3.194-3.194 3.194z"/></symbol>
<symbol viewBox="0 0 22.05699920654297 25.536001205444336" aria-labelledby="cosi-dev-git_compare-title" id="si-dev-git_compare"><title id="cosi-dev-git_compare-title">icon git_compare</title><path d="M20.481 17.767v-9.89c0-4.739-4.726-4.726-4.726-4.726H14.18V0L9.454 4.727l4.726 4.726V6.302h1.575c1.389 0 1.575 1.575 1.575 1.575v9.89a3.132 3.132 0 0 0-1.575 2.714c0 1.739 1.412 3.151 3.151 3.151s3.151-1.413 3.151-3.151a3.138 3.138 0 0 0-1.575-2.714zm-1.575 4.29a1.576 1.576 0 0 1-1.576-1.575 1.576 1.576 0 0 1 3.151 0c0 .871-.705 1.575-1.575 1.575zM1.575 7.769v9.889c0 4.739 4.727 4.727 4.727 4.727h1.575v3.151l4.726-4.726-4.726-4.727v3.151H6.302c-1.389 0-1.575-1.575-1.575-1.575V7.77a3.135 3.135 0 0 0 1.575-2.715c0-1.739-1.412-3.151-3.151-3.151S0 3.316 0 5.055C0 6.219.636 7.223 1.575 7.77zm1.576-1.073a1.575 1.575 0 1 1 0-3.15 1.575 1.575 0 0 1 0 3.15z"/></symbol>
<symbol viewBox="0 0 21.923999786376953 25.5779972076416" aria-labelledby="cpsi-dev-git_merge-title" id="si-dev-git_merge"><title id="cpsi-dev-git_merge-title">icon git_merge</title><path d="M18.271 10.963a3.63 3.63 0 0 0-3.158 1.853c-.164-.012-.325-.026-.496-.026-3.742 0-7.292-2.85-8.588-6.379a3.625 3.625 0 0 0 1.279-2.757C7.308 1.637 5.671 0 3.654 0S0 1.637 0 3.654a3.64 3.64 0 0 0 1.827 3.148v11.975A3.636 3.636 0 0 0 0 21.924c0 2.016 1.637 3.654 3.654 3.654s3.654-1.638 3.654-3.654a3.635 3.635 0 0 0-1.827-3.147v-6.574c2.403 2.542 5.72 4.24 9.135 4.24.182 0 .332-.012.496-.018.632 1.097 1.802 1.845 3.158 1.845 2.016 0 3.654-1.638 3.654-3.654s-1.638-3.654-3.654-3.654zM3.655 23.752a1.827 1.827 0 1 1 0-3.654 1.827 1.827 0 0 1 0 3.654zm0-18.271a1.827 1.827 0 1 1 0-3.654c1.011 0 1.827.816 1.827 1.827s-.816 1.827-1.827 1.827zm14.616 10.963a1.827 1.827 0 1 1 0-3.654 1.827 1.827 0 0 1 0 3.654z"/></symbol>
<symbol viewBox="0 0 20.491003036499023 25.61499786376953" aria-labelledby="cqsi-dev-git_pull_request-title" id="si-dev-git_pull_request"><title id="cqsi-dev-git_pull_request-title">icon git_pull_request</title><path d="M3.415 1.708A3.416 3.416 0 0 0 0 5.123c0 1.26.691 2.35 1.708 2.943v11.192A3.403 3.403 0 0 0 0 22.2c0 1.884 1.53 3.415 3.415 3.415S6.83 24.084 6.83 22.2c0-1.261-.69-2.35-1.708-2.942V8.066A3.403 3.403 0 0 0 6.83 5.123a3.416 3.416 0 0 0-3.415-3.415zm0 22.199a1.708 1.708 0 1 1 0-3.417 1.708 1.708 0 0 1 0 3.417zm0-17.076a1.708 1.708 0 1 1 0-3.415 1.708 1.708 0 0 1 0 3.415zm15.369 12.427V8.538c0-5.136-5.123-5.123-5.123-5.123h-1.708V0L6.83 5.123l5.123 5.123V6.831h1.708c1.506 0 1.708 1.708 1.708 1.708v10.719a3.399 3.399 0 0 0-1.708 2.942c0 1.884 1.531 3.415 3.415 3.415s3.415-1.531 3.415-3.415c0-1.261-.691-2.35-1.708-2.942zm-1.707 4.649a1.708 1.708 0 1 1 0-3.417 1.708 1.708 0 0 1 0 3.417z"/></symbol>
<symbol viewBox="0 0 12.86400032043457 9.647998809814453" aria-labelledby="gssi-dev-terminal_badge-title" id="si-dev-terminal_badge"><title id="gssi-dev-terminal_badge-title">icon terminal_badge</title><path d="M6.432 8.04h6.432v1.608H6.432V8.04zM1.608 9.648l4.824-4.824L1.608 0 0 1.608l3.216 3.216L0 8.04z"/></symbol>
  </defs>
</svg>
