<?xml version="1.0" encoding="utf-8"?>
<svg xmlns="http://www.w3.org/2000/svg" xmlns:xlink="http://www.w3.org/1999/xlink" version="1.1" style="width:0;height:0;position:absolute;overflow:hidden;">
  <defs>
<symbol viewBox="0 0 905.333984375 961.333984375" aria-labelledby="adsi-entypo-alert-title" id="si-entypo-alert"><title id="adsi-entypo-alert-title">icon alert</title><path d="M886.667 597.667c13.333 10.667 18.667 21.667 16 33-2.667 11.333-12 19-28 23l-78 22c-16 4-29.333 13.333-40 28-10.667 14.667-15.333 30.667-14 48l4 82c1.333 16-3.333 27.333-14 34-10.667 6.667-23.333 6.667-38 0l-86-44c-14.667-8-30.333-9.333-47-4s-28.333 15.333-35 30l-46 88c-8 14.667-17.667 22.333-29 23-11.333.667-22.333-5.667-33-19l-50-78c-22.667-32-52-38.667-88-20l-122 70c-14.667 9.333-25.333 11.333-32 6-6.667-5.333-7.333-16-2-32l54-164c5.333-16 4-30.667-4-44-8-13.333-20-20.667-36-22l-106-12c-16-2.667-25.667-8.667-29-18-3.333-9.333 1.667-19.333 15-30l86-76c13.333-10.667 20-24.333 20-41s-6.667-30.333-20-41l-86-76C5.334 353 0 342 2.667 330.667c2.667-11.333 12-19 28-23l78-22c16-4 29.667-13.333 41-28C161 243 166 227 164.667 209.667l-6-82c0-17.333 5-29.333 15-36 10-6.667 22.333-6.667 37 0l80 38c16 6.667 32.333 7.333 49 2s29-15.333 37-30l46-80c8-14.667 18-21.667 30-21 12 .667 22 8.333 30 23l50 86c8 14.667 19.667 24.333 35 29 15.333 4.667 30.333 2.333 45-7l136-84c14.667-9.333 24.667-11.333 30-6 5.333 5.333 5.333 16 0 32l-60 170c-6.667 14.667-6 28.333 2 41 8 12.667 20.667 19.667 38 21l114 12c17.333 1.333 27.333 6.667 30 16 2.667 9.333-2.667 19.333-16 30l-86 76c-12 10.667-18 24.333-18 41s6 30.333 18 41l86 76m-384 92v-104h-100v104h100m0-160v-260h-100v260h100"/></symbol>
<symbol viewBox="0 0 460 1000" aria-labelledby="afsi-entypo-arrow-combo-title" id="si-entypo-arrow-combo"><title id="afsi-entypo-arrow-combo-title">icon arrow-combo</title><path d="M230 0l230 364H0L230 0m0 1000L0 634h460l-230 366"/></symbol>
<symbol viewBox="0 0 850 600" aria-labelledby="ajsi-entypo-back-title" id="si-entypo-back"><title id="ajsi-entypo-back-title">icon back</title><path d="M750 110c26.667 0 50 9.667 70 29s30 43 30 71v290c0 26.667-10 50-30 70s-43.333 30-70 30H60V460h650V250H210v110L0 180 210 0v110h540"/></symbol>
<symbol viewBox="0 0 840 840" aria-labelledby="bcsi-entypo-cancel-circled-title" id="si-entypo-cancel-circled"><title id="bcsi-entypo-cancel-circled-title">icon cancel-circled</title><path d="M420 0c116 0 215 41 297 123s123 181 123 297-41 215-123 297-181 123-297 123-215-41-297-123S0 536 0 420s41-215 123-297S304 0 420 0m86 420l154-154-86-86-154 152-152-152-88 86 154 154-154 152 88 86 152-152 154 152 86-86-154-152"/></symbol>
<symbol viewBox="0 0 470 518" aria-labelledby="bbsi-entypo-cancel-title" id="si-entypo-cancel"><title id="bbsi-entypo-cancel-title">icon cancel</title><path d="M452 416c12 12 18 26.333 18 43s-6 31-18 43c-12 10.667-26.333 16-43 16s-31-5.333-43-16L234 350 102 502c-12 10.667-26.333 16-43 16s-31-5.333-43-16C5.333 490 0 475.667 0 459s5.333-31 16-43l138-156L16 102C5.333 90 0 75.667 0 59s5.333-31 16-43C28 5.333 42.333 0 59 0s31 5.333 43 16l132 152L366 16c12-10.667 26.333-16 43-16s31 5.333 43 16c12 12 18 26.333 18 43s-6 31-18 43L314 260l138 156"/></symbol>
<symbol viewBox="0 0 670.6669921875 702" aria-labelledby="bwsi-entypo-check-title" id="si-entypo-check"><title id="bwsi-entypo-check-title">icon check</title><path d="M250.667 702c-22.667 0-41.333-9.333-56-28l-180-236C4 422 0 404.667 2.667 386s11.333-34 26-46 31.667-16.667 51-14c19.333 2.667 35 12 47 28l118 154 296-474c10.667-16 25-26 43-30s35.667-1.333 53 8c16 10.667 26 25 30 43s1.333 35.667-8 53l-350 560c-13.333 21.333-32 32-56 32l-2 2"/></symbol>
<symbol viewBox="0 0 1000 614" aria-labelledby="cbsi-entypo-code-title" id="si-entypo-code"><title id="cbsi-entypo-code-title">icon code</title><path d="M380 20c10.667 9.333 16 20 16 32s-5.333 22-16 30L134 306l246 226c10.667 8 16 18 16 30s-5.333 22.667-16 32c-20 20-40 20-60 0L0 306 320 20c20-20 40-20 60 0m302 0l318 286-318 288c-21.333 20-42 20-62 0-21.333-21.333-21.333-42 0-62l248-226L620 82c-21.333-20-21.333-40.667 0-62 20-20 40.667-20 62 0"/></symbol>
<symbol viewBox="0 0 940 820" aria-labelledby="chsi-entypo-cw-title" id="si-entypo-cw"><title id="chsi-entypo-cw-title">icon cw</title><path d="M408 0c112 0 207.667 38.667 287 116s120.333 171.333 123 282h122L756 604 572 398h144c-2.667-82.667-34-152.667-94-210s-131.333-86-214-86c-84 0-156 30-216 90s-90 132.667-90 218c0 84 30 156 90 216s132 90 216 90c69.333 0 130-20 182-60l70 76c-73.333 58.667-157.333 88-252 88-112 0-208-40-288-120S0 523.333 0 410s40-210 120-290S296 0 408 0"/></symbol>
<symbol viewBox="0 0 920 220" aria-labelledby="cssi-entypo-dot-3-title" id="si-entypo-dot-3"><title id="cssi-entypo-dot-3-title">icon dot-3</title><path d="M110 0c30.667 0 56.667 10.667 78 32s32 47.333 32 78c0 29.333-10.667 55-32 77s-47.333 33-78 33-56.667-11-78-33-32-47.667-32-77c0-30.667 10.667-56.667 32-78S79.333 0 110 0m350 0c30.667 0 56.667 10.667 78 32s32 47.333 32 78c0 29.333-11 55-33 77s-47.667 33-77 33-55-11-77-33-33-47.667-33-77c0-30.667 10.667-56.667 32-78s47.333-32 78-32m350 0c30.667 0 56.667 10.667 78 32s32 47.333 32 78c0 29.333-10.667 55-32 77s-47.333 33-78 33-56.667-11-78-33-32-47.667-32-77c0-30.667 10.667-56.667 32-78s47.333-32 78-32"/></symbol>
<symbol viewBox="0 0 474.666015625 272" aria-labelledby="czsi-entypo-down-open-mini-title" id="si-entypo-down-open-mini"><title id="czsi-entypo-down-open-mini-title">icon down-open-mini</title><path d="M409.333 17.333C424 0 440 0 457.333 17.333c17.333 14.667 17.333 30.667 0 48l-196 192c-14.667 14.667-30.667 14.667-48 0l-196-192C0 48 0 32 17.333 17.333c16-16 32.667-16 50 0l170 156 172-156"/></symbol>
<symbol viewBox="0 0 500 980" aria-labelledby="dasi-entypo-down-thin-title" id="si-entypo-down-thin"><title id="dasi-entypo-down-thin-title">icon down-thin</title><path d="M500 740L250 980 0 740h162V0h176v740h162"/></symbol>
<symbol viewBox="0 0 640 940" aria-labelledby="easi-entypo-flow-cascade-title" id="si-entypo-flow-cascade"><title id="easi-entypo-flow-cascade-title">icon flow-cascade</title><path d="M520 700c33.333 0 61.667 11.667 85 35s35 51.667 35 85-11.667 61.667-35 85-51.667 35-85 35c-53.333 0-90-24.667-110-74H246c-58.667 0-102.333-18-131-54s-43-75.333-43-118V230C24 207.333 0 170.667 0 120c0-33.333 11.667-61.667 35-85S86.667 0 120 0s61.667 11.667 85 35 35 51.667 35 85c0 50.667-24 87.333-72 110v114c0 52 26 78 78 78h164c20-48 56.667-72 110-72 33.333 0 61.667 11.667 85 35s35 51.667 35 85-11.667 61.667-35 85-51.667 35-85 35c-53.333 0-90-24.667-110-74H246c-28 0-54-5.333-78-16v194c0 52 26 78 78 78h164c20-48 56.667-72 110-72m0-300c-18.667 0-35 6.667-49 20s-21 30-21 50c0 18.667 7 34.667 21 48 14 13.333 30.333 20 49 20s35-6.667 49-20 21-29.333 21-48c0-20-7-36.667-21-50-14-13.333-30.333-20-49-20M50 120c0 18.667 7 34.667 21 48 14 13.333 30.333 20 49 20s35-6.667 49-20 21-29.333 21-48c0-20-7-36.667-21-50-14-13.333-30.333-20-49-20s-35 6.667-49 20-21 30-21 50m470 768c18.667 0 35-6.667 49-20s21-29.333 21-48c0-20-7-36.667-21-50-14-13.333-30.333-20-49-20s-35 6.667-49 20-21 30-21 50c0 18.667 7 34.667 21 48 14 13.333 30.333 20 49 20"/></symbol>
<symbol viewBox="0 0 240 840" aria-labelledby="ebsi-entypo-flow-line-title" id="si-entypo-flow-line"><title id="ebsi-entypo-flow-line-title">icon flow-line</title><path d="M168 608c48 22.667 72 60 72 112 0 33.333-11.667 61.667-35 85s-51.667 35-85 35-61.667-11.667-85-35-35-51.667-35-85c0-52 24-89.333 72-112V230C24 207.333 0 170.667 0 120c0-33.333 11.667-61.667 35-85S86.667 0 120 0s61.667 11.667 85 35 35 51.667 35 85c0 50.667-24 87.333-72 110v378M52 120c0 18.667 6.667 34.667 20 48 13.333 13.333 29.333 20 48 20s35-6.667 49-20 21-29.333 21-48c0-20-7-36.667-21-50-14-13.333-30.333-20-49-20s-34.667 6.667-48 20c-13.333 13.333-20 30-20 50m68 668c18.667 0 35-6.667 49-20s21-29.333 21-48c0-20-7-36.667-21-50-14-13.333-30.333-20-49-20s-34.667 6.667-48 20c-13.333 13.333-20 30-20 50 0 18.667 6.667 34.667 20 48 13.333 13.333 29.333 20 48 20"/></symbol>
<symbol viewBox="0 0 640 840" aria-labelledby="ecsi-entypo-flow-parallel-title" id="si-entypo-flow-parallel"><title id="ecsi-entypo-flow-parallel-title">icon flow-parallel</title><path d="M240 120c0 50.667-24 87.333-72 110v378c48 22.667 72 60 72 112 0 33.333-11.667 61.667-35 85s-51.667 35-85 35-61.667-11.667-85-35-35-51.667-35-85c0-52 24-89.333 72-112V230C24 207.333 0 170.667 0 120c0-33.333 11.667-61.667 35-85S86.667 0 120 0s61.667 11.667 85 35 35 51.667 35 85m-50 600c0-20-7-36.667-21-50-14-13.333-30.333-20-49-20s-34.667 6.667-48 20c-13.333 13.333-20 30-20 50 0 18.667 6.667 34.667 20 48 13.333 13.333 29.333 20 48 20s35-6.667 49-20 21-29.333 21-48m-70-532c18.667 0 35-6.667 49-20s21-29.333 21-48c0-20-7-36.667-21-50-14-13.333-30.333-20-49-20s-34.667 6.667-48 20c-13.333 13.333-20 30-20 50 0 18.667 6.667 34.667 20 48 13.333 13.333 29.333 20 48 20m448 420c48 22.667 72 60 72 112 0 33.333-11.667 61.667-35 85s-51.667 35-85 35-61.667-11.667-85-35-35-51.667-35-85c0-52 24-89.333 72-112V230c-48-22.667-72-59.333-72-110 0-33.333 11.667-61.667 35-85s51.667-35 85-35 61.667 11.667 85 35 35 51.667 35 85c0 50.667-24 87.333-72 110v378M452 120c0 18.667 6.667 34.667 20 48 13.333 13.333 29.333 20 48 20s35-6.667 49-20 21-29.333 21-48c0-20-7-36.667-21-50-14-13.333-30.333-20-49-20s-34.667 6.667-48 20c-13.333 13.333-20 30-20 50m68 668c18.667 0 35-6.667 49-20s21-29.333 21-48c0-20-7-36.667-21-50-14-13.333-30.333-20-49-20s-34.667 6.667-48 20c-13.333 13.333-20 30-20 50 0 18.667 6.667 34.667 20 48 13.333 13.333 29.333 20 48 20"/></symbol>
<symbol viewBox="0 0 940 940" aria-labelledby="edsi-entypo-flow-tree-title" id="si-entypo-flow-tree"><title id="edsi-entypo-flow-tree-title">icon flow-tree</title><path d="M868 708c48 22.667 72 60 72 112 0 33.333-11.667 61.667-35 85s-51.667 35-85 35-61.667-11.667-85-35-35-51.667-35-85c0-52 24-89.333 72-112V594c0-52-25.333-78-76-78H596c-29.333 0-55.333-4-78-12v204c48 22.667 72 60 72 112 0 33.333-11.667 61.667-35 85s-51.667 35-85 35-61.667-11.667-85-35-35-51.667-35-85c0-52 24-89.333 72-112V504c-20 8-45.333 12-76 12H246c-22.667 0-40.333 6.333-53 19-12.667 12.667-20 23.667-22 33-2 9.333-3 18-3 26v114c48 22.667 72 60 72 112 0 33.333-11.667 61.667-35 85s-51.667 35-85 35-61.667-11.667-85-35-35-51.667-35-85c0-52 24-89.333 72-112V594c0-42.667 14.333-82 43-118s72.333-54 131-54h100c50.667 0 76-17.333 76-52V230c-48-22.667-72-59.333-72-110 0-33.333 11.667-61.667 35-85s51.667-35 85-35 61.667 11.667 85 35 35 51.667 35 85c0 50.667-24 87.333-72 110v140c0 34.667 26 52 78 52h100c57.333 0 100.333 18 129 54s43 75.333 43 118v114M190 820c0-20-7-36.667-21-50-14-13.333-30.333-20-49-20s-34.667 6.667-48 20c-13.333 13.333-20 30-20 50 0 18.667 6.667 34.667 20 48 13.333 13.333 29.333 20 48 20s35-6.667 49-20 21-29.333 21-48m212-700c0 18.667 6.667 34.667 20 48 13.333 13.333 29.333 20 48 20s35-6.667 49-20 21-29.333 21-48c0-20-7-36.667-21-50-14-13.333-30.333-20-49-20s-34.667 6.667-48 20c-13.333 13.333-20 30-20 50m138 700c0-20-7-36.667-21-50-14-13.333-30.333-20-49-20s-34.667 6.667-48 20c-13.333 13.333-20 30-20 50 0 18.667 6.667 34.667 20 48 13.333 13.333 29.333 20 48 20s35-6.667 49-20 21-29.333 21-48m280 68c18.667 0 35-6.667 49-20s21-29.333 21-48c0-20-7-36.667-21-50-14-13.333-30.333-20-49-20s-34.667 6.667-48 20c-13.333 13.333-20 30-20 50 0 18.667 6.667 34.667 20 48 13.333 13.333 29.333 20 48 20"/></symbol>
<symbol viewBox="0 0 273.3330078125 472.666015625" aria-labelledby="fosi-entypo-left-open-mini-title" id="si-entypo-left-open-mini"><title id="fosi-entypo-left-open-mini-title">icon left-open-mini</title><path d="M256 407.333c17.333 17.333 17.333 33.333 0 48-17.333 17.333-33.333 17.333-48 0l-192-194c-16-16-16-32.667 0-50l192-194C222.667 0 238.667 0 256 17.333c17.333 14.667 17.333 30.667 0 48l-156 172 156 170"/></symbol>
<symbol viewBox="0 0 744 600" aria-labelledby="fqsi-entypo-level-down-title" id="si-entypo-level-down"><title id="fqsi-entypo-level-down-title">icon level-down</title><path d="M100 450c-28 0-51.667-10-71-30S0 376.667 0 350V0h140v310h364V160l240 220-240 220V450H100"/></symbol>
<symbol viewBox="0 0 850 480" aria-labelledby="frsi-entypo-level-up-title" id="si-entypo-level-up"><title id="frsi-entypo-level-up-title">icon level-up</title><path d="M200 240v90L0 170 200 0v100h550c26.667 0 50 9.667 70 29s30 43 30 71v280H710V240H200"/></symbol>
<symbol viewBox="0 0 900 600" aria-labelledby="ggsi-entypo-loop-title" id="si-entypo-loop"><title id="ggsi-entypo-loop-title">icon loop</title><path d="M800 110c28 0 51.667 9.667 71 29s29 43 29 71v290c0 26.667-9.667 50-29 70s-43 30-71 30H100c-26.667 0-50-10-70-30S0 526.667 0 500V210c0-28 10-51.667 30-71s43.333-29 70-29h250V0l200 180-200 180V250H140v210h620V250H610V110h190"/></symbol>
<symbol viewBox="0 0 840 840" aria-labelledby="gosi-entypo-minus-circled-title" id="si-entypo-minus-circled"><title id="gosi-entypo-minus-circled-title">icon minus-circled</title><path d="M420 0c116 0 215 41 297 123s123 181 123 297-41 215-123 297-181 123-297 123-215-41-297-123S0 536 0 420s41-215 123-297S304 0 420 0m252 368H168v102h504V368"/></symbol>
<symbol viewBox="0 0 580 100" aria-labelledby="gnsi-entypo-minus-title" id="si-entypo-minus"><title id="gnsi-entypo-minus-title">icon minus</title><path d="M550 0c20 0 30 16.667 30 50s-10 50-30 50H30C10 100 0 83.333 0 50S10 0 30 0h520"/></symbol>
<symbol viewBox="0 0 840 840" aria-labelledby="hnsi-entypo-plus-circled-title" id="si-entypo-plus-circled"><title id="hnsi-entypo-plus-circled-title">icon plus-circled</title><path d="M420 0c116 0 215 41 297 123s123 181 123 297-41 215-123 297-181 123-297 123-215-41-297-123S0 536 0 420s41-215 123-297S304 0 420 0m52 470h200V368H472V166H370v202H168v102h202v202h102V470"/></symbol>
<symbol viewBox="0 0 580 580" aria-labelledby="hmsi-entypo-plus-title" id="si-entypo-plus"><title id="hmsi-entypo-plus-title">icon plus</title><path d="M550 240c20 0 30 16.667 30 50s-10 50-30 50H340v210c0 20-16.667 30-50 30s-50-10-50-30V340H30c-20 0-30-16.667-30-50s10-50 30-50h210V30c0-20 16.667-30 50-30s50 10 50 30v210h210"/></symbol>
<symbol viewBox="0 0 1000 600" aria-labelledby="igsi-entypo-retweet-title" id="si-entypo-retweet"><title id="igsi-entypo-retweet-title">icon retweet</title><path d="M250 460h272l128 140H202c-28 0-51.667-10-71-30s-29-43.333-29-70V198H0L176 0l174 198H250v262m650-60h100L826 600 650 400h102V140H478L350 0h450c26.667 0 50 9.667 70 29s30 43 30 71v300"/></symbol>
<symbol viewBox="0 0 273.3330078125 472.666015625" aria-labelledby="insi-entypo-right-open-mini-title" id="si-entypo-right-open-mini"><title id="insi-entypo-right-open-mini-title">icon right-open-mini</title><path d="M17.333 407.333l158-170-158-172C0 48 0 32 17.333 17.333 34.666 0 50.666 0 65.333 17.333l192 194c16 17.333 16 34 0 50l-192 194c-14.667 17.333-30.667 17.333-48 0-17.333-14.667-17.333-30.667 0-48"/></symbol>
<symbol viewBox="0 0 794 797.3330078125" aria-labelledby="irsi-entypo-search-title" id="si-entypo-search"><title id="irsi-entypo-search-title">icon search</title><path d="M772 668c20 22.667 22 43.333 6 62l-46 46c-24 21.333-46.667 21.333-68 0L474 586c-49.333 28-101.333 42-156 42-85.333 0-159.667-31.667-223-95S0 395.333 0 310 30 151.667 90 91 222.667 0 308 0s160 31.667 224 95 96 137.667 96 223c0 58.667-15.333 112.667-46 162l190 188M94 310c0 58.667 22.667 110.667 68 156s97.333 68 156 68 109-21 151-63 63-93 63-153c0-58.667-22.667-110.333-68-155s-97.333-67-156-67-109 21-151 63-63 92.333-63 151"/></symbol>
<symbol viewBox="0 0 472 272" aria-labelledby="kjsi-entypo-up-open-mini-title" id="si-entypo-up-open-mini"><title id="kjsi-entypo-up-open-mini-title">icon up-open-mini</title><path d="M66 257.333C48.667 272 32 272 16 257.333c-16-16-16-32.667 0-50l196-190C229.333 0 245.333 0 260 17.333l196 190c16 17.333 16 34 0 50-16 14.667-32.667 14.667-50 0l-170-158-170 158"/></symbol>
  </defs>
</svg>
