<?xml version="1.0" encoding="utf-8"?>
<svg xmlns="http://www.w3.org/2000/svg" xmlns:xlink="http://www.w3.org/1999/xlink" version="1.1" style="width:0;height:0;position:absolute;overflow:hidden;">
  <defs>
<symbol viewBox="0 0 998 582" aria-labelledby="arsi-awesome-angle-down-title" id="si-awesome-angle-down"><title id="arsi-awesome-angle-down-title">icon angle-down</title><path d="M998 83q0 13-10 23L522 572q-10 10-23 10t-23-10L10 106Q0 96 0 83t10-23l50-50Q70 0 83 0t23 10l393 393L892 10q10-10 23-10t23 10l50 50q10 10 10 23z"/></symbol>
<symbol viewBox="0 0 582 998" aria-labelledby="assi-awesome-angle-left-title" id="si-awesome-angle-left"><title id="assi-awesome-angle-left-title">icon angle-left</title><path d="M582 83q0 13-10 23L179 499l393 393q10 10 10 23t-10 23l-50 50q-10 10-23 10t-23-10L10 522Q0 512 0 499t10-23L476 10q10-10 23-10t23 10l50 50q10 10 10 23z"/></symbol>
<symbol viewBox="0 0 582 998" aria-labelledby="atsi-awesome-angle-right-title" id="si-awesome-angle-right"><title id="atsi-awesome-angle-right-title">icon angle-right</title><path d="M582 499q0 13-10 23L106 988q-10 10-23 10t-23-10l-50-50Q0 928 0 915t10-23l393-393L10 106Q0 96 0 83t10-23l50-50Q70 0 83 0t23 10l466 466q10 10 10 23z"/></symbol>
<symbol viewBox="0 0 998 582" aria-labelledby="ausi-awesome-angle-up-title" id="si-awesome-angle-up"><title id="ausi-awesome-angle-up-title">icon angle-up</title><path d="M998 499q0 13-10 23l-50 50q-10 10-23 10t-23-10L499 179 106 572q-10 10-23 10t-23-10l-50-50Q0 512 0 499t10-23L476 10q10-10 23-10t23 10l466 466q10 10 10 23z"/></symbol>
<symbol viewBox="0 0 1792 640" aria-labelledby="bmsi-awesome-arrows-h-title" id="si-awesome-arrows-h"><title id="bmsi-awesome-arrows-h-title">icon arrows-h</title><path d="M1792 320q0 26-19 45l-256 256q-19 19-45 19t-45-19-19-45V448H384v128q0 26-19 45t-45 19-45-19L19 365Q0 346 0 320t19-45L275 19q19-19 45-19t45 19 19 45v128h1024V64q0-26 19-45t45-19 45 19l256 256q19 19 19 45z"/></symbol>
<symbol viewBox="0 0 640 1792" aria-labelledby="bnsi-awesome-arrows-v-title" id="si-awesome-arrows-v"><title id="bnsi-awesome-arrows-v-title">icon arrows-v</title><path d="M640 320q0 26-19 45t-45 19H448v1024h128q26 0 45 19t19 45-19 45l-256 256q-19 19-45 19t-45-19L19 1517q-19-19-19-45t19-45 45-19h128V384H64q-26 0-45-19T0 320t19-45L275 19q19-19 45-19t45 19l256 256q19 19 19 45z"/></symbol>
<symbol viewBox="0 0 1280 1513" aria-labelledby="dcsi-awesome-bookmark-o-title" id="si-awesome-bookmark-o"><title id="dcsi-awesome-bookmark-o-title">icon bookmark-o</title><path d="M1152 128H128v1242l423-406 89-85 89 85 423 406V128zm12-128q23 0 44 9 33 13 52.5 41t19.5 62v1289q0 34-19.5 62t-52.5 41q-19 8-44 8-48 0-83-32l-441-424-441 424q-36 33-83 33-23 0-44-9-33-13-52.5-41T0 1401V112q0-34 19.5-62T72 9q21-9 44-9h1048z"/></symbol>
<symbol viewBox="0 0 1280 1513" aria-labelledby="dbsi-awesome-bookmark-title" id="si-awesome-bookmark"><title id="dbsi-awesome-bookmark-title">icon bookmark</title><path d="M1164 0q23 0 44 9 33 13 52.5 41t19.5 62v1289q0 34-19.5 62t-52.5 41q-19 8-44 8-48 0-83-32l-441-424-441 424q-36 33-83 33-23 0-44-9-33-13-52.5-41T0 1401V112q0-34 19.5-62T72 9q21-9 44-9h1048z"/></symbol>
<symbol viewBox="0 0 1663 1408" aria-labelledby="ewsi-awesome-check-square-o-title" id="si-awesome-check-square-o"><title id="ewsi-awesome-check-square-o-title">icon check-square-o</title><path d="M1408 802v318q0 119-84.5 203.5T1120 1408H288q-119 0-203.5-84.5T0 1120V288Q0 169 84.5 84.5T288 0h832q63 0 117 25 15 7 18 23 3 17-9 29l-49 49q-10 10-23 10-3 0-9-2-23-6-45-6H288q-66 0-113 47t-47 113v832q0 66 47 113t113 47h832q66 0 113-47t47-113V866q0-13 9-22l64-64q10-10 23-10 6 0 12 3 20 8 20 29zm231-489l-814 814q-24 24-57 24t-57-24L281 697q-24-24-24-57t24-57l110-110q24-24 57-24t57 24l263 263 647-647q24-24 57-24t57 24l110 110q24 24 24 57t-24 57z"/></symbol>
<symbol viewBox="0 0 1612 1035" aria-labelledby="fbsi-awesome-chevron-down-title" id="si-awesome-chevron-down"><title id="fbsi-awesome-chevron-down-title">icon chevron-down</title><path d="M1593 275l-742 741q-19 19-45 19t-45-19L19 275Q0 256 0 229.5T19 184L185 19q19-19 45-19t45 19l531 531 531-531q19-19 45-19t45 19l166 165q19 19 19 45.5t-19 45.5z"/></symbol>
<symbol viewBox="0 0 1036 1612" aria-labelledby="fcsi-awesome-chevron-left-title" id="si-awesome-chevron-left"><title id="fcsi-awesome-chevron-left-title">icon chevron-left</title><path d="M1017 275L486 806l531 531q19 19 19 45t-19 45l-166 166q-19 19-45 19t-45-19L19 851Q0 832 0 806t19-45L761 19q19-19 45-19t45 19l166 166q19 19 19 45t-19 45z"/></symbol>
<symbol viewBox="0 0 1036 1612" aria-labelledby="fdsi-awesome-chevron-right-title" id="si-awesome-chevron-right"><title id="fdsi-awesome-chevron-right-title">icon chevron-right</title><path d="M1017 851l-742 742q-19 19-45 19t-45-19L19 1427q-19-19-19-45t19-45l531-531L19 275Q0 256 0 230t19-45L185 19q19-19 45-19t45 19l742 742q19 19 19 45t-19 45z"/></symbol>
<symbol viewBox="0 0 1612 1035" aria-labelledby="fesi-awesome-chevron-up-title" id="si-awesome-chevron-up"><title id="fesi-awesome-chevron-up-title">icon chevron-up</title><path d="M1593 851l-166 165q-19 19-45 19t-45-19L806 485l-531 531q-19 19-45 19t-45-19L19 851Q0 832 0 805.5T19 760L761 19q19-19 45-19t45 19l742 741q19 19 19 45.5t-19 45.5z"/></symbol>
<symbol viewBox="0 0 1024 1536" aria-labelledby="fusi-awesome-code-fork-title" id="si-awesome-code-fork"><title id="fusi-awesome-code-fork-title">icon code-fork</title><path d="M288 1344q0-40-28-68t-68-28-68 28-28 68 28 68 68 28 68-28 28-68zm0-1152q0-40-28-68t-68-28-68 28-28 68 28 68 68 28 68-28 28-68zm640 128q0-40-28-68t-68-28-68 28-28 68 28 68 68 28 68-28 28-68zm96 0q0 52-26 96.5T928 486q-2 287-226 414-68 38-203 81-128 40-169.5 71T288 1152v26q44 25 70 69.5t26 96.5q0 80-56 136t-136 56-136-56-56-136q0-52 26-96.5t70-69.5V358q-44-25-70-69.5T0 192q0-80 56-136T192 0t136 56 56 136q0 52-26 96.5T288 358v497q54-26 154-57 55-17 87.5-29.5t70.5-31 59-39.5 40.5-51 28-69.5T736 486q-44-25-70-69.5T640 320q0-80 56-136t136-56 136 56 56 136z"/></symbol>
<symbol viewBox="0 0 1408 384" aria-labelledby="hqsi-awesome-ellipsis-h-title" id="si-awesome-ellipsis-h"><title id="hqsi-awesome-ellipsis-h-title">icon ellipsis-h</title><path d="M384 96v192q0 40-28 68t-68 28H96q-40 0-68-28T0 288V96q0-40 28-68T96 0h192q40 0 68 28t28 68zm512 0v192q0 40-28 68t-68 28H608q-40 0-68-28t-28-68V96q0-40 28-68t68-28h192q40 0 68 28t28 68zm512 0v192q0 40-28 68t-68 28h-192q-40 0-68-28t-28-68V96q0-40 28-68t68-28h192q40 0 68 28t28 68z"/></symbol>
<symbol viewBox="0 0 384 1408" aria-labelledby="hrsi-awesome-ellipsis-v-title" id="si-awesome-ellipsis-v"><title id="hrsi-awesome-ellipsis-v-title">icon ellipsis-v</title><path d="M384 1120v192q0 40-28 68t-68 28H96q-40 0-68-28t-28-68v-192q0-40 28-68t68-28h192q40 0 68 28t28 68zm0-512v192q0 40-28 68t-68 28H96q-40 0-68-28T0 800V608q0-40 28-68t68-28h192q40 0 68 28t28 68zm0-512v192q0 40-28 68t-68 28H96q-40 0-68-28T0 288V96q0-40 28-68T96 0h192q40 0 68 28t28 68z"/></symbol>
<symbol viewBox="0 0 1664 1587" aria-labelledby="uesi-awesome-star-o-title" id="si-awesome-star-o"><title id="uesi-awesome-star-o-title">icon star-o</title><path d="M1137 972l306-297-422-62-189-382-189 382-422 62 306 297-73 421 378-199 377 199zm527-357q0 22-26 48l-363 354 86 500q1 7 1 20 0 50-41 50-19 0-40-12l-449-236-449 236q-22 12-40 12-21 0-31.5-14.5T301 1537q0-6 2-20l86-500L25 663Q0 636 0 615q0-37 56-46l502-73L783 41q19-41 49-41t49 41l225 455 502 73q56 9 56 46z"/></symbol>
<symbol viewBox="0 0 1664 1587" aria-labelledby="ubsi-awesome-star-title" id="si-awesome-star"><title id="ubsi-awesome-star-title">icon star</title><path d="M1664 615q0 22-26 48l-363 354 86 500q1 7 1 20 0 21-10.5 35.5T1321 1587q-19 0-40-12l-449-236-449 236q-22 12-40 12-21 0-31.5-14.5T301 1537q0-6 2-20l86-500L25 663Q0 636 0 615q0-37 56-46l502-73L783 41q19-41 49-41t49 41l225 455 502 73q56 9 56 46z"/></symbol>
  </defs>
</svg>
