<?xml version="1.0" encoding="utf-8"?>
<svg xmlns="http://www.w3.org/2000/svg" xmlns:xlink="http://www.w3.org/1999/xlink" version="1.1" style="width:0;height:0;position:absolute;overflow:hidden;">
  <defs>
<symbol viewBox="0 0 36 36" aria-labelledby="agmsi-material-check-box-outline-blank-title" id="si-material-check-box-outline-blank"><title id="agmsi-material-check-box-outline-blank-title">icon check-box-outline-blank</title><path d="M32 4v28H4V4h28m0-4H4C1.79 0 0 1.79 0 4v28c0 2.21 1.79 4 4 4h28c2.21 0 4-1.79 4-4V4c0-2.21-1.79-4-4-4z"/></symbol>
<symbol viewBox="0 0 36 36" aria-labelledby="aglsi-material-check-box-title" id="si-material-check-box"><title id="aglsi-material-check-box-title">icon check-box</title><path d="M32 0H4C1.79 0 0 1.79 0 4v28c0 2.21 1.79 4 4 4h28c2.21 0 4-1.79 4-4V4c0-2.21-1.79-4-4-4zM14 28L4 18l2.83-2.83L14 22.34 29.17 7.17 32 10 14 28z"/></symbol>
<symbol viewBox="0 0 14.829999923706055 24" aria-labelledby="agosi-material-chevron-left-title" id="si-material-chevron-left"><title id="agosi-material-chevron-left-title">icon chevron-left</title><path d="M14.83 2.83L12 0 0 12l12 12 2.83-2.83L5.66 12z"/></symbol>
<symbol viewBox="0 0 14.829999923706055 24" aria-labelledby="agpsi-material-chevron-right-title" id="si-material-chevron-right"><title id="agpsi-material-chevron-right-title">icon chevron-right</title><path d="M2.83 0L0 2.83 9.17 12 0 21.17 2.83 24l12-12z"/></symbol>
<symbol viewBox="0 0 24 14.829999923706055" aria-labelledby="akssi-material-expand-less-title" id="si-material-expand-less"><title id="akssi-material-expand-less-title">icon expand-less</title><path d="M12 0L0 12l2.83 2.83L12 5.66l9.17 9.17L24 12z"/></symbol>
<symbol viewBox="0 0 24 14.829999923706055" aria-labelledby="aktsi-material-expand-more-title" id="si-material-expand-more"><title id="aktsi-material-expand-more-title">icon expand-more</title><path d="M21.17 0L12 9.17 2.83 0 0 2.83l12 12 12-12z"/></symbol>
<symbol viewBox="0 0 41 34" aria-labelledby="anssi-material-format-line-spacing-title" id="si-material-format-line-spacing"><title id="anssi-material-format-line-spacing-title">icon format-line-spacing</title><path d="M9 7h5L7 0 0 7h5v20H0l7 7 7-7H9V7zm8-4v4h24V3H17zm0 28h24v-4H17v4zm0-12h24v-4H17v4z"/></symbol>
<symbol viewBox="0 0 28 28" aria-labelledby="aoksi-material-fullscreen-exit-title" id="si-material-fullscreen-exit"><title id="aoksi-material-fullscreen-exit-title">icon fullscreen-exit</title><path d="M0 22h6v6h4V18H0v4zM6 6H0v4h10V0H6v6zm12 22h4v-6h6v-4H18v10zm4-22V0h-4v10h10V6h-6z"/></symbol>
<symbol viewBox="0 0 28 28" aria-labelledby="aojsi-material-fullscreen-title" id="si-material-fullscreen"><title id="aojsi-material-fullscreen-title">icon fullscreen</title><path d="M4 18H0v10h10v-4H4v-6zm-4-8h4V4h6V0H0v10zm24 14h-6v4h10V18h-4v6zM18 0v4h6v6h4V0H18z"/></symbol>
<symbol viewBox="0 0 24 14.829999923706055" aria-labelledby="aqtsi-material-keyboard-arrow-down-title" id="si-material-keyboard-arrow-down"><title id="aqtsi-material-keyboard-arrow-down-title">icon keyboard-arrow-down</title><path d="M2.83 0L12 9.17 21.17 0 24 2.83l-12 12-12-12z"/></symbol>
<symbol viewBox="0 0 14.829999923706055 24" aria-labelledby="aqusi-material-keyboard-arrow-left-title" id="si-material-keyboard-arrow-left"><title id="aqusi-material-keyboard-arrow-left-title">icon keyboard-arrow-left</title><path d="M14.83 21.17L5.66 12l9.17-9.17L12 0 0 12l12 12z"/></symbol>
<symbol viewBox="0 0 14.829999923706055 24" aria-labelledby="aqvsi-material-keyboard-arrow-right-title" id="si-material-keyboard-arrow-right"><title id="aqvsi-material-keyboard-arrow-right-title">icon keyboard-arrow-right</title><path d="M0 21.17L9.17 12 0 2.83 2.83 0l12 12-12 12z"/></symbol>
<symbol viewBox="0 0 24 14.829999923706055" aria-labelledby="aqwsi-material-keyboard-arrow-up-title" id="si-material-keyboard-arrow-up"><title id="aqwsi-material-keyboard-arrow-up-title">icon keyboard-arrow-up</title><path d="M2.83 14.83L12 5.66l9.17 9.17L24 12 12 0 0 12z"/></symbol>
<symbol viewBox="0 0 40 30" aria-labelledby="atzsi-material-low-priority-title" id="si-material-low-priority"><title id="atzsi-material-low-priority-title">icon low-priority</title><path d="M24 0h16v4H24zm0 11h16v4H24zm0 11h16v4H24zM0 13c0 7.17 5.83 13 13 13h1v4l6-6-6-6v4h-1c-4.96 0-9-4.04-9-9s4.04-9 9-9h7V0h-7C5.83 0 0 5.83 0 13z"/></symbol>
<symbol viewBox="0 0 32 8" aria-labelledby="auvsi-material-more-horiz-title" id="si-material-more-horiz"><title id="auvsi-material-more-horiz-title">icon more-horiz</title><path d="M4 0C1.79 0 0 1.79 0 4s1.79 4 4 4 4-1.79 4-4-1.79-4-4-4zm24 0c-2.21 0-4 1.79-4 4s1.79 4 4 4 4-1.79 4-4-1.79-4-4-4zM16 0c-2.21 0-4 1.79-4 4s1.79 4 4 4 4-1.79 4-4-1.79-4-4-4z"/></symbol>
<symbol viewBox="0 0 8 32" aria-labelledby="auwsi-material-more-vert-title" id="si-material-more-vert"><title id="auwsi-material-more-vert-title">icon more-vert</title><path d="M4 8c2.21 0 4-1.79 4-4S6.21 0 4 0 0 1.79 0 4s1.79 4 4 4zm0 4c-2.21 0-4 1.79-4 4s1.79 4 4 4 4-1.79 4-4-1.79-4-4-4zm0 12c-2.21 0-4 1.79-4 4s1.79 4 4 4 4-1.79 4-4-1.79-4-4-4z"/></symbol>
<symbol viewBox="0 0 14.829999923706055 24" aria-labelledby="avjsi-material-navigate-before-title" id="si-material-navigate-before"><title id="avjsi-material-navigate-before-title">icon navigate-before</title><path d="M14.83 2.83L12 0 0 12l12 12 2.83-2.83L5.66 12z"/></symbol>
<symbol viewBox="0 0 14.829999923706055 24" aria-labelledby="avksi-material-navigate-next-title" id="si-material-navigate-next"><title id="avksi-material-navigate-next-title">icon navigate-next</title><path d="M2.83 0L0 2.83 9.17 12 0 21.17 2.83 24l12-12z"/></symbol>
<symbol viewBox="0 0 36 36" aria-labelledby="bhlsi-material-tune-title" id="si-material-tune"><title id="bhlsi-material-tune-title">icon tune</title><path d="M0 28v4h12v-4H0zM0 4v4h20V4H0zm20 32v-4h16v-4H20v-4h-4v12h4zM8 12v4H0v4h8v4h4V12H8zm28 8v-4H16v4h20zm-12-8h4V8h8V4h-8V0h-4v12z"/></symbol>
<symbol viewBox="0 0 18.339998245239258 32" aria-labelledby="bhrsi-material-unfold-less-title" id="si-material-unfold-less"><title id="bhrsi-material-unfold-less-title">icon unfold-less</title><path d="M0 29.17L2.83 32l6.34-6.34L15.51 32l2.83-2.83L9.17 20 0 29.17zM18.34 2.83L15.51 0 9.17 6.34 2.83 0 0 2.83 9.17 12l9.17-9.17z"/></symbol>
<symbol viewBox="0 0 18.339998245239258 36" aria-labelledby="bhssi-material-unfold-more-title" id="si-material-unfold-more"><title id="bhssi-material-unfold-more-title">icon unfold-more</title><path d="M9.17 5.66L15.51 12l2.83-2.83L9.17 0 0 9.17 2.83 12l6.34-6.34zm0 24.68L2.83 24 0 26.83 9.17 36l9.17-9.17L15.51 24l-6.34 6.34z"/></symbol>
<symbol viewBox="0 0 34 32" aria-labelledby="bjwsi-material-wrap-text-title" id="si-material-wrap-text"><title id="bjwsi-material-wrap-text-title">icon wrap-text</title><path d="M0 28h12v-4H0v4zM32 0H0v4h32V0zm-6 12H0v4h26.5c2.21 0 4 1.79 4 4s-1.79 4-4 4H22v-4l-6 6 6 6v-4h4c4.41 0 8-3.59 8-8s-3.59-8-8-8z"/></symbol>
  </defs>
</svg>
