<?xml version="1.0" encoding="utf-8"?>
<svg xmlns="http://www.w3.org/2000/svg" xmlns:xlink="http://www.w3.org/1999/xlink" version="1.1" style="width:0;height:0;position:absolute;overflow:hidden;">
  <defs>
<symbol viewBox="0 0 780.49609375 902.248046875" aria-labelledby="ansi-metro-arrow-down-title" id="si-metro-arrow-down"><title id="ansi-metro-arrow-down-title">icon arrow-down</title><path d="M755.502 557.254l-320 320c-24.992 24.994-65.514 24.994-90.508 0l-320-320C0 532.26 0 491.738 24.994 466.744c24.994-24.996 65.516-24.996 90.51 0L326.248 677.49V64c0-35.346 28.654-64 64-64s64 28.654 64 64v613.49l210.747-210.746C677.49 454.248 693.87 448 710.248 448s32.758 6.248 45.254 18.746c24.994 24.994 24.994 65.514 0 90.508z"/></symbol>
<symbol viewBox="0 0 902.2470703125 780.4960327148438" aria-labelledby="aqsi-metro-arrow-left-title" id="si-metro-arrow-left"><title id="aqsi-metro-arrow-left-title">icon arrow-left</title><path d="M344.995 755.502l-320-320C0 410.51 0 369.986 24.995 344.992l320-320C369.988 0 410.51 0 435.505 24.992c24.993 24.994 24.993 65.516 0 90.51L224.757 326.248h613.49c35.346 0 64 28.654 64 64s-28.654 64-64 64h-613.49l210.748 210.746c12.496 12.496 18.744 28.876 18.744 45.254s-6.248 32.758-18.744 45.254c-24.994 24.994-65.516 24.994-90.51 0z"/></symbol>
<symbol viewBox="0 0 902.2479248046875 780.4960327148438" aria-labelledby="arsi-metro-arrow-right-title" id="si-metro-arrow-right"><title id="arsi-metro-arrow-right-title">icon arrow-right</title><path d="M557.254 755.502l320-320c24.994-24.992 24.994-65.516 0-90.51l-320-320C532.26 0 491.738 0 466.744 24.992c-24.994 24.994-24.994 65.516 0 90.51L677.49 326.248H64c-35.346 0-64 28.654-64 64s28.654 64 64 64h613.49L466.744 664.994C454.248 677.49 448 693.87 448 710.248s6.248 32.758 18.744 45.254c24.994 24.994 65.516 24.994 90.51 0z"/></symbol>
<symbol viewBox="0 0 780.49609375 902.2479858398438" aria-labelledby="assi-metro-arrow-up-title" id="si-metro-arrow-up"><title id="assi-metro-arrow-up-title">icon arrow-up</title><path d="M755.502 344.994l-320-320C410.51 0 369.988 0 344.994 24.994l-320 320C0 369.988 0 410.51 24.994 435.504c24.994 24.996 65.516 24.996 90.51 0l210.744-210.746v613.49c0 35.346 28.654 64 64 64s64-28.654 64-64v-613.49l210.747 210.746c12.495 12.496 28.875 18.744 45.253 18.744s32.758-6.248 45.254-18.746c24.994-24.994 24.994-65.514 0-90.508z"/></symbol>
<symbol viewBox="0 0 1024 959.552001953125" aria-labelledby="bysi-metro-bubble-title" id="si-metro-bubble"><title id="bysi-metro-bubble-title">icon bubble</title><path d="M512 0c282.77 0 512 186.25 512 416 0 229.752-229.23 416-512 416-27.156 0-53.81-1.734-79.824-5.044C322.198 936.934 190.926 956.656 64 959.552v-26.916c68.536-33.578 128-94.74 128-164.636 0-9.754-.758-19.33-2.164-28.696C74.04 663.04 0 546.55 0 416 0 186.25 229.23 0 512 0z"/></symbol>
<symbol viewBox="0 0 1024 800" aria-labelledby="crsi-metro-checkmark-title" id="si-metro-checkmark"><title id="crsi-metro-checkmark-title">icon checkmark</title><path d="M864 0L384 480 160 256 0 416l384 384 640-640z"/></symbol>
<symbol viewBox="0 0 316.37298583984375 512" aria-labelledby="cssi-metro-chevron-left-title" id="si-metro-chevron-left"><title id="cssi-metro-chevron-left-title">icon chevron-left</title><path d="M316.373 60.373L256 0 0 256l256 256 60.373-60.373L120.746 256z"/></symbol>
<symbol viewBox="0 0 316.37298583984375 512" aria-labelledby="ctsi-metro-chevron-right-title" id="si-metro-chevron-right"><title id="ctsi-metro-chevron-right-title">icon chevron-right</title><path d="M60.373 0L0 60.373 195.627 256 0 451.627 60.373 512l256-256z"/></symbol>
<symbol viewBox="0 0 884.1480712890625 477.9530029296875" aria-labelledby="cusi-metro-chevron-thin-down-title" id="si-metro-chevron-thin-down"><title id="cusi-metro-chevron-thin-down-title">icon chevron-thin-down</title><path d="M820.148 13.722C834.074 0 856.449 0 870.273 13.722s13.875 35.891 0 49.613l-404.89 400.896c-13.824 13.722-36.198 13.722-50.125 0L10.368 63.335a34.86 34.86 0 0 1 0-49.613C24.243 0 46.669 0 60.493 13.722l379.853 365.619L820.148 13.722z"/></symbol>
<symbol viewBox="0 0 477.95294189453125 884.1480102539062" aria-labelledby="cvsi-metro-chevron-thin-left-title" id="si-metro-chevron-thin-left"><title id="cvsi-metro-chevron-thin-left-title">icon chevron-thin-left</title><path d="M464.231 820.148c13.722 13.926 13.722 36.301 0 50.125s-35.89 13.875-49.613 0L13.722 465.383C0 451.559 0 429.185 13.722 415.258l400.896-404.89a34.86 34.86 0 0 1 49.613 0c13.722 13.875 13.722 36.301 0 50.125L98.612 440.346l365.62 379.802z"/></symbol>
<symbol viewBox="0 0 477.9530029296875 884.1480712890625" aria-labelledby="cwsi-metro-chevron-thin-right-title" id="si-metro-chevron-thin-right"><title id="cwsi-metro-chevron-thin-right-title">icon chevron-thin-right</title><path d="M379.341 440.397L13.722 60.493C0 46.669 0 24.295 13.722 10.368a34.86 34.86 0 0 1 49.613 0l400.896 404.89c13.722 13.875 13.722 36.301 0 50.125L63.335 870.273c-13.722 13.875-35.89 13.824-49.613 0C0 856.5 0 834.075 13.722 820.148l365.62-379.75z"/></symbol>
<symbol viewBox="0 0 884.1480712890625 477.95294189453125" aria-labelledby="cxsi-metro-chevron-thin-up-title" id="si-metro-chevron-thin-up"><title id="cxsi-metro-chevron-thin-up-title">icon chevron-thin-up</title><path d="M64 464.231c-13.926 13.722-36.3 13.722-50.125 0s-13.875-35.891 0-49.613l404.89-400.896C432.589 0 454.963 0 468.89 13.722l404.89 400.896a34.86 34.86 0 0 1 0 49.613c-13.875 13.722-36.3 13.722-50.074 0L443.802 98.612 64 464.231z"/></symbol>
<symbol viewBox="0 0 896 1024" aria-labelledby="czsi-metro-clipboard-title" id="si-metro-clipboard"><title id="czsi-metro-clipboard-title">icon clipboard</title><path d="M864 128H576C576 57.308 518.694 0 448 0c-70.692 0-128 57.308-128 128H32c-17.672 0-32 14.328-32 32v832c0 17.674 14.328 32 32 32h832c17.674 0 32-14.326 32-32V160c0-17.672-14.326-32-32-32zM448 64c35.346 0 64 28.654 64 64s-28.654 64-64 64c-35.346 0-64-28.654-64-64s28.654-64 64-64zm384 896H64V192h128v96c0 17.672 14.328 32 32 32h448c17.674 0 32-14.328 32-32v-96h128v768zM384 858.51L178.747 621.256l58.508-58.51L384 677.49l274.742-242.744 58.514 58.508z"/></symbol>
<symbol viewBox="0 0 987.8820190429688 1023.9999389648438" aria-labelledby="dosi-metro-cog-title" id="si-metro-cog"><title id="dosi-metro-cog-title">icon cog</title><path d="M915.73 610.252c-53.726-93.054-21.416-212.304 72.152-266.488L887.257 169.472c-28.75 16.854-62.176 26.518-97.846 26.518-107.536 0-194.708-87.746-194.708-195.99H393.444c.266 33.41-8.074 67.282-25.958 98.252-53.724 93.056-173.156 124.702-266.862 70.758L0 343.302c28.97 16.472 54.05 40.588 71.886 71.478C125.524 507.688 93.398 626.7.178 681.004l100.626 174.292c28.65-16.696 61.916-26.254 97.4-26.254 107.196 0 194.144 87.192 194.7 194.958h201.254c-.086-33.074 8.272-66.57 25.966-97.218C673.76 833.876 792.9 802.188 886.538 855.77l100.626-174.29c-28.78-16.466-53.692-40.498-71.434-71.228zM493.94 719.334c-114.508 0-207.336-92.824-207.336-207.334 0-114.508 92.826-207.334 207.336-207.334 114.508 0 207.332 92.826 207.332 207.334-.002 114.51-92.824 207.334-207.332 207.334z"/></symbol>
<symbol viewBox="0 0 1024 1024" aria-labelledby="dpsi-metro-cogs-title" id="si-metro-cogs"><title id="dpsi-metro-cogs-title">icon cogs</title><path d="M363.722 722.052l41.298-57.816-45.253-45.256-57.818 41.296a159.049 159.049 0 0 0-34.266-14.192L256 576h-64l-11.68 70.086a159.049 159.049 0 0 0-34.266 14.192L88.237 618.98l-45.256 45.256 41.298 57.816a159.049 159.049 0 0 0-14.192 34.266L0 768v64l70.086 11.682a159.09 159.09 0 0 0 14.192 34.266L42.98 935.764l45.254 45.256 57.818-41.296a159.049 159.049 0 0 0 34.266 14.192L192 1024h64l11.68-70.086a159.049 159.049 0 0 0 34.266-14.192l57.818 41.296 45.254-45.256-41.298-57.816a159.049 159.049 0 0 0 14.192-34.266L448 832v-64l-70.086-11.682a159.09 159.09 0 0 0-14.192-34.266zM224 864c-35.348 0-64-28.654-64-64s28.652-64 64-64 64 28.654 64 64-28.652 64-64 64zm800-480v-64l-67.382-12.25a287.178 287.178 0 0 0-4.724-23.79l57.558-37.1-24.492-59.128-66.944 14.468a287.474 287.474 0 0 0-13.492-20.13l39.006-56.342-45.256-45.254-56.342 39.006a289.382 289.382 0 0 0-20.13-13.494l14.468-66.944-59.128-24.494-37.1 57.558a287.178 287.178 0 0 0-23.79-4.724L704 0h-64l-12.252 67.382a287.341 287.341 0 0 0-23.79 4.724L566.86 14.548 507.732 39.04l14.468 66.944a288.201 288.201 0 0 0-20.13 13.494l-56.342-39.006-45.254 45.254 39.006 56.342a288.201 288.201 0 0 0-13.494 20.13l-66.944-14.468-24.492 59.128 57.558 37.1a287.014 287.014 0 0 0-4.724 23.79L320 320v64l67.382 12.25a287.178 287.178 0 0 0 4.724 23.79l-57.558 37.1 24.492 59.128 66.944-14.468a288.674 288.674 0 0 0 13.494 20.13l-39.006 56.342 45.254 45.256 56.342-39.006a288.176 288.176 0 0 0 20.13 13.492l-14.468 66.944 59.128 24.492 37.102-57.558a286.967 286.967 0 0 0 23.788 4.724L640 704h64l12.252-67.382a287.505 287.505 0 0 0 23.79-4.724l37.1 57.558 59.128-24.492-14.468-66.944a288.176 288.176 0 0 0 20.13-13.492l56.342 39.006 45.256-45.256-39.006-56.342a288.648 288.648 0 0 0 13.492-20.13l66.944 14.468 24.492-59.13-57.558-37.1a287.014 287.014 0 0 0 4.724-23.79L1024 384zM672 491.2c-76.878 0-139.2-62.322-139.2-139.2S595.12 212.8 672 212.8 811.2 275.122 811.2 352c0 76.878-62.32 139.2-139.2 139.2z"/></symbol>
<symbol viewBox="0 0 768 768" aria-labelledby="drsi-metro-command-title" id="si-metro-command"><title id="drsi-metro-command-title">icon command</title><path d="M608 768c-88.224 0-160-71.776-160-160v-96H320v96c0 88.224-71.776 160-160 160S0 696.224 0 608s71.776-160 160-160h96V320h-96C71.776 320 0 248.224 0 160S71.776 0 160 0s160 71.776 160 160v96h128v-96C448 71.776 519.776 0 608 0s160 71.776 160 160-71.776 160-160 160h-96v128h96c88.224 0 160 71.776 160 160s-71.774 160-160 160zm-96-256v96c0 52.934 43.066 96 96 96s96-43.066 96-96-43.066-96-96-96h-96zm-352 0c-52.934 0-96 43.066-96 96s43.066 96 96 96 96-43.066 96-96v-96h-96zm160-64h128V320H320v128zm192-192h96c52.934 0 96-43.066 96-96s-43.066-96-96-96-96 43.066-96 96v96zM160 64c-52.934 0-96 43.066-96 96s43.066 96 96 96h96v-96c0-52.934-43.064-96-96-96z"/></symbol>
<symbol viewBox="0 0 1028.4400634765625 1028.43798828125" aria-labelledby="ecsi-metro-cross-title" id="si-metro-cross"><title id="ecsi-metro-cross-title">icon cross</title><path d="M1016.88 824.878c-.004-.004-.008-.008-.012-.01l-310.643-310.65 310.644-310.65.012-.01a31.763 31.763 0 0 0 7.312-11.416c4.246-11.376 1.824-24.682-7.324-33.83L870.122 11.566C860.974 2.42 847.672 0 836.294 4.246a31.826 31.826 0 0 0-11.418 7.31c0 .004-.004.006-.008.01L514.22 322.218 203.572 11.568l-.01-.01a31.794 31.794 0 0 0-11.414-7.31c-11.38-4.248-24.682-1.826-33.83 7.32L11.57 158.316c-9.148 9.148-11.568 22.452-7.322 33.828a31.816 31.816 0 0 0 7.312 11.416c.004.002.006.006.01.01l310.65 310.648L11.57 824.87l-.008.01a31.859 31.859 0 0 0-7.314 11.414C0 847.67 2.422 860.976 11.57 870.124l146.748 146.746c9.15 9.148 22.452 11.568 33.83 7.322a31.834 31.834 0 0 0 11.416-7.312c.002-.004.006-.006.01-.01l310.648-310.65 310.648 310.65.012.008a31.822 31.822 0 0 0 11.414 7.314c11.378 4.246 24.684 1.826 33.828-7.322l146.746-146.748c9.148-9.148 11.57-22.454 7.324-33.83a31.805 31.805 0 0 0-7.314-11.414z"/></symbol>
<symbol viewBox="0 0 960 640" aria-labelledby="fcsi-metro-embed-title" id="si-metro-embed"><title id="fcsi-metro-embed-title">icon embed</title><path d="M544 544l96 96 320-320L640 0l-96 96 224 224zM416 96L320 0 0 320l320 320 96-96-224-224z"/></symbol>
<symbol viewBox="0 0 1216 722.9700317382812" aria-labelledby="fdsi-metro-embed2-title" id="si-metro-embed2"><title id="fdsi-metro-embed2-title">icon embed2</title><path d="M800 585.481l96 96 320-320-320-320-96 96 224 224zm-384-448l-96-96-320 320 320 320 96-96-224-224zM669.298 0l69.468 18.944L546.779 722.97l-69.468-18.944L669.298 0z"/></symbol>
<symbol viewBox="0 0 1024 1024" aria-labelledby="fesi-metro-enlarge-title" id="si-metro-enlarge"><title id="fesi-metro-enlarge-title">icon enlarge</title><path d="M1024 0H608l160 160-192 192 96 96 192-192 160 160zm0 1024V608L864 768 672 576l-96 96 192 192-160 160zM0 1024h416L256 864l192-192-96-96-192 192L0 608zM0 0v416l160-160 192 192 96-96-192-192L416 0z"/></symbol>
<symbol viewBox="0 0 1024 1024" aria-labelledby="ffsi-metro-enlarge2-title" id="si-metro-enlarge2"><title id="ffsi-metro-enlarge2-title">icon enlarge2</title><path d="M1024 0v416L864 256 672 448l-96-96 192-192L608 0zM448 672L256 864l160 160H0V608l160 160 192-192z"/></symbol>
<symbol viewBox="0 0 896 1024" aria-labelledby="fjsi-metro-equalizer-v-title" id="si-metro-equalizer-v"><title id="fjsi-metro-equalizer-v-title">icon equalizer-v</title><path d="M832 448h16c26.4 0 48-21.6 48-48V240c0-26.4-21.6-48-48-48h-16V0H704v192h-16c-26.4 0-48 21.6-48 48v160c0 26.4 21.6 48 48 48h16v576h128V448zM704 256h128v128H704V256zM528 832c26.4 0 48-21.6 48-48V624c0-26.4-21.6-48-48-48h-16V0H384v576h-16c-26.4 0-48 21.6-48 48v160c0 26.4 21.6 48 48 48h16v192h128V832h16zM384 640h128v128H384V640zM208 448c26.4 0 48-21.6 48-48V240c0-26.4-21.6-48-48-48h-16V0H64v192H48c-26.4 0-48 21.6-48 48v160c0 26.4 21.6 48 48 48h16v576h128V448h16zM64 256h128v128H64V256z"/></symbol>
<symbol viewBox="0 0 1024 896" aria-labelledby="fisi-metro-equalizer-title" id="si-metro-equalizer"><title id="fisi-metro-equalizer-title">icon equalizer</title><path d="M448 64V48c0-26.4-21.6-48-48-48H240c-26.4 0-48 21.6-48 48v16H0v128h192v16c0 26.4 21.6 48 48 48h160c26.4 0 48-21.6 48-48v-16h576V64H448zM256 192V64h128v128H256zm576 176c0-26.4-21.6-48-48-48H624c-26.4 0-48 21.6-48 48v16H0v128h576v16c0 26.4 21.6 48 48 48h160c26.4 0 48-21.6 48-48v-16h192V384H832v-16zM640 512V384h128v128H640zM448 688c0-26.4-21.6-48-48-48H240c-26.4 0-48 21.6-48 48v16H0v128h192v16c0 26.4 21.6 48 48 48h160c26.4 0 48-21.6 48-48v-16h576V704H448v-16zM256 832V704h128v128H256z"/></symbol>
<symbol viewBox="0 0 512 316.3730163574219" aria-labelledby="fpsi-metro-expand-less-title" id="si-metro-expand-less"><title id="fpsi-metro-expand-less-title">icon expand-less</title><path d="M256 0L0 256l60.373 60.373L256 120.746l195.627 195.627L512 256z"/></symbol>
<symbol viewBox="0 0 512 316.3730163574219" aria-labelledby="fqsi-metro-expand-more-title" id="si-metro-expand-more"><title id="fqsi-metro-expand-more-title">icon expand-more</title><path d="M451.627 0L256 195.627 60.373 0 0 60.373l256 256 256-256z"/></symbol>
<symbol viewBox="0 0 896 1024" aria-labelledby="gesi-metro-file-empty-title" id="si-metro-file-empty"><title id="gesi-metro-file-empty-title">icon file-empty</title><path d="M853.807 229.076c-22.213-30.292-53.175-65.7-87.179-99.704s-69.412-64.964-99.704-87.178C615.35 4.374 590.332 0 576 0H80C35.888 0 0 35.888 0 80v864c0 44.112 35.888 80 80 80h736c44.112 0 80-35.888 80-80V320c0-14.332-4.372-39.35-42.194-90.924zm-132.433-54.45c30.7 30.7 54.8 58.398 72.58 81.374H640V102.054c22.984 17.78 50.678 41.878 81.374 72.572zM832 944c0 8.672-7.328 16-16 16H80c-8.672 0-16-7.328-16-16V80c0-8.672 7.328-16 16-16 0 0 495.956-.002 496 0v224c0 17.672 14.326 32 32 32h224v624z"/></symbol>
<symbol viewBox="0 0 896 1024" aria-labelledby="gosi-metro-file-text-title" id="si-metro-file-text"><title id="gosi-metro-file-text-title">icon file-text</title><path d="M853.807 229.076c-22.213-30.292-53.175-65.7-87.179-99.704s-69.412-64.964-99.704-87.178C615.35 4.374 590.332 0 576 0H80C35.888 0 0 35.888 0 80v864c0 44.112 35.888 80 80 80h736c44.112 0 80-35.888 80-80V320c0-14.332-4.372-39.35-42.194-90.924zm-132.433-54.45c30.7 30.7 54.8 58.398 72.58 81.374H640V102.054c22.984 17.78 50.678 41.878 81.374 72.572zM832 944c0 8.672-7.328 16-16 16H80c-8.672 0-16-7.328-16-16V80c0-8.672 7.328-16 16-16 0 0 495.956-.002 496 0v224c0 17.672 14.326 32 32 32h224v624zM672 832H224c-17.672 0-32-14.326-32-32s14.328-32 32-32h448c17.674 0 32 14.326 32 32s-14.326 32-32 32zm0-128H224c-17.672 0-32-14.326-32-32s14.328-32 32-32h448c17.674 0 32 14.326 32 32s-14.326 32-32 32zm0-128H224c-17.672 0-32-14.326-32-32s14.328-32 32-32h448c17.674 0 32 14.326 32 32s-14.326 32-32 32z"/></symbol>
<symbol viewBox="0 0 655.3600463867188 860.1599731445312" aria-labelledby="hfsi-metro-flow-branch-title" id="si-metro-flow-branch"><title id="hfsi-metro-flow-branch-title">icon flow-branch</title><path d="M655.36 122.88C655.36 54.989 600.371 0 532.48 0S409.6 54.989 409.6 122.88c0 49.203 29.082 91.341 70.861 110.95-4.198 81.101-65.024 108.646-170.752 148.275-44.544 16.742-93.645 35.277-135.629 63.181V234.291c42.24-19.456 71.68-61.901 71.68-111.411C245.76 54.989 190.771 0 122.88 0S0 54.989 0 122.88c0 49.51 29.491 91.955 71.68 111.411V625.92C29.44 645.325 0 687.77 0 737.28c0 67.891 54.99 122.88 122.88 122.88s122.88-55.04 122.88-122.88c0-49.203-29.082-91.341-70.86-110.95 4.197-81.05 65.074-108.646 170.751-148.275 103.936-39.014 232.5-87.603 237.568-243.507 42.445-19.354 72.141-61.952 72.141-111.667zM122.88 51.968c39.117 0 70.861 31.693 70.861 70.912 0 39.117-31.744 70.912-70.86 70.912-39.169 0-70.862-31.795-70.862-70.912 0-39.219 31.693-70.912 70.861-70.912zm0 756.224c-39.219 0-70.912-31.795-70.912-70.912 0-39.219 31.693-70.912 70.912-70.912 39.117 0 70.861 31.693 70.861 70.912 0 39.117-31.744 70.912-70.86 70.912zm409.6-614.4c-39.219 0-70.912-31.795-70.912-70.912 0-39.219 31.693-70.912 70.912-70.912 39.117 0 70.861 31.693 70.861 70.912 0 39.117-31.744 70.912-70.86 70.912z"/></symbol>
<symbol viewBox="0 0 655.3600463867188 962.5599975585938" aria-labelledby="hgsi-metro-flow-cascade-title" id="si-metro-flow-cascade"><title id="hgsi-metro-flow-cascade-title">icon flow-cascade</title><path d="M532.48 716.8c-49.51 0-91.955 29.491-111.41 71.68H250.88c-42.394 0-76.8-34.406-76.8-76.8V514.56c23.347 11.162 49.203 17.92 76.8 17.92h170.19c19.455 42.189 61.85 71.68 111.41 71.68 67.891 0 122.88-55.04 122.88-122.88S600.371 358.4 532.48 358.4c-49.51 0-91.955 29.491-111.41 71.68H250.88c-42.394 0-76.8-34.406-76.8-76.8V234.291c42.24-19.456 71.68-61.901 71.68-111.411C245.76 54.989 190.771 0 122.88 0S0 54.989 0 122.88c0 49.51 29.491 91.955 71.68 111.411V711.68c0 98.97 80.23 179.2 179.2 179.2h170.19c19.455 42.189 61.85 71.68 111.41 71.68 67.891 0 122.88-55.04 122.88-122.88S600.371 716.8 532.48 716.8zm0-306.432c39.117 0 70.861 31.693 70.861 70.912 0 39.117-31.744 70.912-70.86 70.912-39.22 0-70.913-31.795-70.913-70.912.051-39.219 31.744-70.912 70.912-70.912zm-409.6-358.4c39.117 0 70.861 31.693 70.861 70.912 0 39.117-31.744 70.912-70.86 70.912-39.169 0-70.862-31.795-70.862-70.912 0-39.219 31.693-70.912 70.861-70.912zm409.6 858.624c-39.219 0-70.912-31.795-70.912-70.912 0-39.219 31.693-70.912 70.912-70.912 39.117 0 70.861 31.693 70.861 70.912 0 39.117-31.744 70.912-70.86 70.912z"/></symbol>
<symbol viewBox="0 0 245.760009765625 860.1599731445312" aria-labelledby="hhsi-metro-flow-line-title" id="si-metro-flow-line"><title id="hhsi-metro-flow-line-title">icon flow-line</title><path d="M174.08 625.869V234.291c42.24-19.456 71.68-61.85 71.68-111.411C245.76 54.989 190.771 0 122.88 0S0 54.989 0 122.88c0 49.51 29.491 91.955 71.68 111.411V625.92C29.44 645.325 0 687.77 0 737.28c0 67.891 54.99 122.88 122.88 122.88s122.88-55.04 122.88-122.88c0-49.51-29.44-91.955-71.68-111.411zm-51.2-573.901c39.117 0 70.861 31.693 70.861 70.912 0 39.117-31.744 70.912-70.86 70.912-39.169 0-70.862-31.795-70.862-70.912 0-39.219 31.693-70.912 70.861-70.912zm0 756.224c-39.219 0-70.912-31.795-70.912-70.912 0-39.219 31.693-70.912 70.912-70.912 39.117 0 70.861 31.693 70.861 70.912 0 39.117-31.744 70.912-70.86 70.912z"/></symbol>
<symbol viewBox="0 0 655.3609619140625 860.2109985351562" aria-labelledby="hisi-metro-flow-parallel-title" id="si-metro-flow-parallel"><title id="hisi-metro-flow-parallel-title">icon flow-parallel</title><path d="M245.76 122.88C245.76 54.989 190.771 0 122.88 0S0 54.989 0 122.88c0 49.51 29.491 91.955 71.68 111.411V625.92C29.44 645.325 0 687.77 0 737.28c0 67.891 54.99 122.88 122.88 122.88s122.88-55.04 122.88-122.88c0-49.51-29.49-91.955-71.68-111.411V234.291c42.24-19.456 71.68-61.901 71.68-111.411zm-52.019 614.4c0 39.117-31.744 70.912-70.86 70.912-39.22 0-70.913-31.795-70.913-70.912 0-39.219 31.693-70.912 70.912-70.912 39.117 0 70.861 31.693 70.861 70.912zm-70.86-543.488c-39.169 0-70.862-31.795-70.862-70.912 0-39.219 31.693-70.912 70.912-70.912 39.117 0 70.861 31.693 70.861 70.912-.05 39.117-31.795 70.912-70.912 70.912zm460.8 432.077V234.291c42.24-19.456 71.68-61.85 71.68-111.411C655.361 54.989 600.371 0 532.481 0S409.6 54.989 409.6 122.88c0 49.51 29.49 91.955 71.68 111.411V625.92c-42.24 19.456-71.68 61.85-71.68 111.411 0 67.891 54.988 122.88 122.88 122.88s122.88-55.04 122.88-122.88c0-49.562-29.44-92.006-71.68-111.462zM461.618 122.88c0-39.219 31.693-70.912 70.912-70.912 39.117 0 70.861 31.693 70.861 70.912 0 39.117-31.744 70.912-70.86 70.912-39.22 0-70.913-31.795-70.913-70.912zm70.861 685.312c-39.219 0-70.912-31.795-70.912-70.912 0-39.219 31.693-70.912 70.912-70.912 39.117 0 70.861 31.693 70.861 70.912 0 39.117-31.744 70.912-70.86 70.912z"/></symbol>
<symbol viewBox="0 0 962.56005859375 962.5599975585938" aria-labelledby="hjsi-metro-flow-tree-title" id="si-metro-flow-tree"><title id="hjsi-metro-flow-tree-title">icon flow-tree</title><path d="M890.88 728.269V609.28c0-98.97-80.23-179.2-179.2-179.2h-102.4c-42.394 0-76.8-34.406-76.8-76.8V234.291c42.24-19.456 71.68-61.85 71.68-111.411C604.16 54.989 549.171 0 481.28 0S358.4 54.989 358.4 122.88c0 49.51 29.491 91.955 71.68 111.411V353.28c0 42.394-34.406 76.8-76.8 76.8h-102.4c-98.97 0-179.2 80.23-179.2 179.2v118.989C29.44 747.725 0 790.17 0 839.68c0 67.891 54.99 122.88 122.88 122.88s122.88-55.04 122.88-122.88c0-49.51-29.49-91.955-71.68-111.411V609.28c0-42.394 34.406-76.8 76.8-76.8h102.4c27.597 0 53.453-6.758 76.8-17.92v213.709c-42.24 19.456-71.68 61.901-71.68 111.411 0 67.891 54.99 122.88 122.88 122.88s122.88-55.04 122.88-122.88c0-49.51-29.49-91.955-71.68-111.411V514.56c23.347 11.162 49.203 17.92 76.8 17.92h102.4c42.394 0 76.8 34.406 76.8 76.8v118.989c-42.24 19.456-71.68 61.85-71.68 111.411 0 67.891 54.99 122.88 122.88 122.88s122.88-55.04 122.88-122.88c0-49.51-29.44-91.955-71.68-111.411zM481.28 51.968c39.117 0 70.861 31.693 70.861 70.912 0 39.117-31.744 70.912-70.86 70.912-39.169 0-70.862-31.795-70.862-70.912 0-39.219 31.693-70.912 70.861-70.912zm-358.4 858.624c-39.219 0-70.912-31.795-70.912-70.912 0-39.219 31.693-70.912 70.912-70.912 39.117 0 70.861 31.693 70.861 70.912 0 39.117-31.744 70.912-70.86 70.912zm358.4 0c-39.219 0-70.912-31.795-70.912-70.912 0-39.219 31.693-70.912 70.912-70.912 39.117 0 70.861 31.693 70.861 70.912 0 39.117-31.744 70.912-70.86 70.912zm358.4 0c-39.219 0-70.912-31.795-70.912-70.912 0-39.219 31.693-70.912 70.912-70.912 39.117 0 70.861 31.693 70.861 70.912 0 39.117-31.744 70.912-70.86 70.912z"/></symbol>
<symbol viewBox="0 0 1024 832" aria-labelledby="hnsi-metro-folder-open-title" id="si-metro-folder-open"><title id="hnsi-metro-folder-open-title">icon folder-open</title><path d="M832 832l192-512H192L0 832zM128 256L0 832V0h288l128 128h416v128z"/></symbol>
<symbol viewBox="0 0 1024 832" aria-labelledby="hksi-metro-folder-title" id="si-metro-folder"><title id="hksi-metro-folder-title">icon folder</title><path d="M448 0l128 128h448v704H0V0z"/></symbol>
<symbol viewBox="0 0 810.6659545898438 512" aria-labelledby="jfsi-metro-keyboard-return-title" id="si-metro-keyboard-return"><title id="jfsi-metro-keyboard-return-title">icon keyboard-return</title><path d="M725.333 42.666v170.667h-561.92l152.96-152.96L256 0 0 256l256 256 60.373-60.373-152.96-152.96h647.253v-256z"/></symbol>
<symbol viewBox="0 0 1024 1024" aria-labelledby="kksi-metro-loop-title" id="si-metro-loop"><title id="kksi-metro-loop-title">icon loop</title><path d="M128 320h640v192l256-256L768 0v192H0v384h128zm768 384H256V512L0 768l256 256V832h768V448H896z"/></symbol>
<symbol viewBox="0 0 1024 1024" aria-labelledby="klsi-metro-loop2-title" id="si-metro-loop2"><title id="klsi-metro-loop2-title">icon loop2</title><path d="M889.68 166.32C796.072 64.104 661.527 0 512 0 229.23 0 0 229.23 0 512h96C96 282.25 282.25 96 512 96c123.02 0 233.542 53.418 309.696 138.306L672 384h352V32L889.68 166.32zM928 512c0 229.75-186.25 416-416 416-123.02 0-233.542-53.418-309.694-138.306L352 640H0v352l134.32-134.32C227.928 959.896 362.474 1024 512 1024c282.77 0 512-229.23 512-512h-96z"/></symbol>
<symbol viewBox="0 0 768 512" aria-labelledby="kysi-metro-menu-title" id="si-metro-menu"><title id="kysi-metro-menu-title">icon menu</title><path d="M0 512h768v-85.333H0V512zm0-213.333h768v-85.333H0v85.333zM0 0v85.333h768V0H0z"/></symbol>
<symbol viewBox="0 0 682.666015625 170.666015625" aria-labelledby="lhsi-metro-more-horiz-title" id="si-metro-more-horiz"><title id="lhsi-metro-more-horiz-title">icon more-horiz</title><path d="M85.333 0C38.186 0 0 38.187 0 85.333s38.187 85.333 85.333 85.333 85.333-38.187 85.333-85.333S132.48 0 85.333 0zm512 0C550.186 0 512 38.187 512 85.333s38.187 85.333 85.333 85.333 85.333-38.187 85.333-85.333S644.48 0 597.333 0zm-256 0C294.186 0 256 38.187 256 85.333s38.187 85.333 85.333 85.333 85.333-38.187 85.333-85.333S388.48 0 341.333 0z"/></symbol>
<symbol viewBox="0 0 170.666015625 682.666015625" aria-labelledby="lisi-metro-more-vert-title" id="si-metro-more-vert"><title id="lisi-metro-more-vert-title">icon more-vert</title><path d="M85.333 170.666c47.147 0 85.333-38.187 85.333-85.333S132.48 0 85.333 0 0 38.187 0 85.333s38.187 85.333 85.333 85.333zm0 85.334C38.186 256 0 294.187 0 341.333s38.187 85.333 85.333 85.333 85.333-38.187 85.333-85.333S132.48 256 85.333 256zm0 256C38.186 512 0 550.187 0 597.333s38.187 85.333 85.333 85.333 85.333-38.187 85.333-85.333S132.48 512 85.333 512z"/></symbol>
<symbol viewBox="0 0 1024 1024" aria-labelledby="mjsi-metro-pencil-title" id="si-metro-pencil"><title id="mjsi-metro-pencil-title">icon pencil</title><path d="M864 0c88.364 0 160 71.634 160 160 0 36.02-11.91 69.258-32 96l-64 64L704 96l64-64c26.742-20.09 59.978-32 96-32zM64 736L0 1024l288-64 592-592-224-224L64 736zm651.578-372.422l-448 448-55.156-55.156 448-448 55.156 55.156z"/></symbol>
<symbol viewBox="0 0 1024 1024" aria-labelledby="nasi-metro-plus-title" id="si-metro-plus"><title id="nasi-metro-plus-title">icon plus</title><path d="M992 384H640V32c0-17.672-14.328-32-32-32H416c-17.672 0-32 14.328-32 32v352H32c-17.672 0-32 14.328-32 32v192c0 17.672 14.328 32 32 32h352v352c0 17.672 14.328 32 32 32h192c17.672 0 32-14.328 32-32V640h352c17.672 0 32-14.328 32-32V416c0-17.672-14.328-32-32-32z"/></symbol>
<symbol viewBox="0 0 1024 896" aria-labelledby="npsi-metro-redo-title" id="si-metro-redo"><title id="npsi-metro-redo-title">icon redo</title><path d="M0 512c0 152.924 67.048 290.184 173.35 384l84.666-96C178.29 729.636 128 626.696 128 512c0-212.076 171.93-384 384-384 106.042 0 202.038 42.986 271.53 112.478L640 384h384V0L874.03 149.978C781.377 57.32 653.387 0 512 0 229.23 0 0 229.23 0 512z"/></symbol>
<symbol viewBox="0 0 1024 1024" aria-labelledby="ogsi-metro-share-title" id="si-metro-share"><title id="ogsi-metro-share-title">icon share</title><path d="M864 704c-45.16 0-85.92 18.738-115.012 48.83L317.984 537.328C319.298 529.076 320 520.622 320 512s-.702-17.076-2.016-25.326l431.004-215.502C778.08 301.262 818.84 320 864 320c88.366 0 160-71.634 160-160S952.366 0 864 0 704 71.634 704 160c0 8.622.704 17.076 2.016 25.326L275.012 400.83C245.92 370.74 205.16 352 160 352 71.634 352 0 423.636 0 512c0 88.368 71.634 160 160 160 45.16 0 85.92-18.738 115.012-48.828l431.005 215.502A161.12 161.12 0 0 0 704 864c0 88.368 71.634 160 160 160s160-71.632 160-160c0-88.364-71.634-160-160-160z"/></symbol>
<symbol viewBox="0 0 1024 1024" aria-labelledby="opsi-metro-shrink2-title" id="si-metro-shrink2"><title id="opsi-metro-shrink2-title">icon shrink2</title><path d="M448 576v416L288 832 96 1024 0 928l192-192L32 576zm576-480L832 288l160 160H576V32l160 160L928 0z"/></symbol>
<symbol viewBox="0 0 1024 896" aria-labelledby="rjsi-metro-undo-title" id="si-metro-undo"><title id="rjsi-metro-undo-title">icon undo</title><path d="M512 0C370.616 0 242.624 57.32 149.968 149.978L0 0v384h384L240.468 240.478C309.964 170.986 405.96 128 512 128c212.068 0 384 171.924 384 384 0 114.696-50.292 217.636-130.018 288l84.666 96C956.95 802.184 1024 664.924 1024 512 1024 229.23 794.77 0 512 0z"/></symbol>
<symbol viewBox="0 0 391.25811767578125 682.666015625" aria-labelledby="rksi-metro-unfold-less-title" id="si-metro-unfold-less"><title id="rksi-metro-unfold-less-title">icon unfold-less</title><path d="M.002 622.293l60.373 60.373 135.253-135.253 135.253 135.253 60.373-60.373-195.627-195.627L0 622.293zm391.254-561.92L330.883 0 195.63 135.253 60.377 0 .004 60.373 195.631 256 391.258 60.373z"/></symbol>
<symbol viewBox="0 0 391.2560119628906 768" aria-labelledby="rlsi-metro-unfold-more-title" id="si-metro-unfold-more"><title id="rlsi-metro-unfold-more-title">icon unfold-more</title><path d="M195.628 120.747L330.881 256l60.373-60.373L195.627 0 0 195.627 60.373 256l135.253-135.253zm0 526.506L60.375 512 .002 572.373 195.629 768l195.627-195.627L330.883 512 195.63 647.253z"/></symbol>
<symbol viewBox="0 0 682.6669921875 768" aria-labelledby="rzsi-metro-vertical-align-bottom-title" id="si-metro-vertical-align-bottom"><title id="rzsi-metro-vertical-align-bottom-title">icon vertical-align-bottom</title><path d="M512 426.667H384V0h-85.333v426.667h-128l170.667 170.667 170.667-170.667zm-512 256V768h682.667v-85.333H0z"/></symbol>
<symbol viewBox="0 0 682.6669921875 938.66796875" aria-labelledby="sasi-metro-vertical-align-center-title" id="si-metro-vertical-align-center"><title id="sasi-metro-vertical-align-center-title">icon vertical-align-center</title><path d="M170.666 768.001h128v170.667H384V768.001h128L341.332 597.334 170.665 768.001zM512 170.667H384V0h-85.333v170.667h-128l170.667 170.667 170.667-170.667zm-512 256V512h682.667v-85.333H0z"/></symbol>
<symbol viewBox="0 0 682.6669921875 768" aria-labelledby="sbsi-metro-vertical-align-top-title" id="si-metro-vertical-align-top"><title id="sbsi-metro-vertical-align-top-title">icon vertical-align-top</title><path d="M170.666 341.333h128V768H384V341.333h128L341.332 170.666 170.665 341.333zM0 0v85.333h682.667V0H0z"/></symbol>
<symbol viewBox="0 0 1034.81494140625 1034.81396484375" aria-labelledby="tqsi-metro-zoom-in-title" id="si-metro-zoom-in"><title id="tqsi-metro-zoom-in-title">icon zoom-in</title><path d="M992.262 871.396L749.71 665.102c-25.074-22.566-51.89-32.926-73.552-31.926C733.414 566.108 768 479.098 768 384 768 171.922 596.078 0 384 0 171.924 0 0 171.922 0 384s171.922 384 384 384c95.098 0 182.108-34.586 249.176-91.844-1 21.662 9.36 48.478 31.926 73.552L871.397 992.26c35.322 39.246 93.022 42.554 128.22 7.356s31.892-92.898-7.354-128.22zM384 640c-141.384 0-256-114.616-256-256s114.616-256 256-256 256 114.616 256 256-114.614 256-256 256zm64-448H320v128H192v128h128v128h128V448h128V320H448z"/></symbol>
<symbol viewBox="0 0 1034.81494140625 1034.81396484375" aria-labelledby="trsi-metro-zoom-out-title" id="si-metro-zoom-out"><title id="trsi-metro-zoom-out-title">icon zoom-out</title><path d="M992.262 871.396L749.71 665.102c-25.074-22.566-51.89-32.926-73.552-31.926C733.414 566.108 768 479.098 768 384 768 171.922 596.078 0 384 0 171.924 0 0 171.922 0 384s171.922 384 384 384c95.098 0 182.108-34.586 249.176-91.844-1 21.662 9.36 48.478 31.926 73.552L871.397 992.26c35.322 39.246 93.022 42.554 128.22 7.356s31.892-92.898-7.354-128.22zM384 640c-141.384 0-256-114.616-256-256s114.616-256 256-256 256 114.616 256 256-114.614 256-256 256zM192 320h384v128H192z"/></symbol>
  </defs>
</svg>
