<?xml version="1.0" encoding="utf-8"?>
<svg xmlns="http://www.w3.org/2000/svg" xmlns:xlink="http://www.w3.org/1999/xlink" version="1.1" style="width:0;height:0;position:absolute;overflow:hidden;">
  <defs>
<symbol viewBox="0 0 10.09814739227295 12.413999557495117" aria-labelledby="ahsi-typcn-arrow-down-title" id="si-typcn-arrow-down"><title id="ahsi-typcn-arrow-down-title">icon arrow-down</title><path d="M9.805 6.293a.999.999 0 0 0-1.414 0L6.098 8.586V1a1 1 0 1 0-2 0v7.586L1.805 6.293A1 1 0 1 0 .39 7.707l4.707 4.707 4.707-4.707a.999.999 0 0 0 0-1.414z"/></symbol>
<symbol viewBox="0 0 12.413999557495117 10.098501205444336" aria-labelledby="amsi-typcn-arrow-left-title" id="si-typcn-arrow-left"><title id="amsi-typcn-arrow-left-title">icon arrow-left</title><path d="M11.414 4.097H3.828l2.293-2.293A1 1 0 1 0 4.707.39L0 5.097l4.707 4.707a.997.997 0 0 0 1.414 0 .999.999 0 0 0 0-1.414L3.828 6.097h7.586a1 1 0 0 0 0-2z"/></symbol>
<symbol viewBox="0 0 18 13.097465515136719" aria-labelledby="apsi-typcn-arrow-loop-title" id="si-typcn-arrow-loop"><title id="apsi-typcn-arrow-loop-title">icon arrow-loop</title><path d="M13.5 3.097h-2.086l1.293-1.293A1 1 0 1 0 11.293.39L7.586 4.097l3.707 3.707a.997.997 0 0 0 1.414 0 .999.999 0 0 0 0-1.414l-1.293-1.293H13.5c1.379 0 2.5 1.346 2.5 3s-1.346 3-3 3H5c-1.654 0-3-1.346-3-3s1.346-3 3-3a1 1 0 1 0 0-2c-2.757 0-5 2.243-5 5s2.243 5 5 5h8c2.757 0 5-2.243 5-5s-2.019-5-4.5-5z"/></symbol>
<symbol viewBox="0 0 12.413999557495117 10.097668647766113" aria-labelledby="azsi-typcn-arrow-right-title" id="si-typcn-arrow-right"><title id="azsi-typcn-arrow-right-title">icon arrow-right</title><path d="M6.293.293a.999.999 0 0 0 0 1.414L8.586 4H1a1 1 0 0 0 0 2h7.586L6.293 8.293a1 1 0 1 0 1.414 1.414L12.414 5 7.707.293a.999.999 0 0 0-1.414 0z"/></symbol>
<symbol viewBox="0 0 10.097665786743164 12.413999557495117" aria-labelledby="bisi-typcn-arrow-up-title" id="si-typcn-arrow-up"><title id="bisi-typcn-arrow-up-title">icon arrow-up</title><path d="M5.097 0L.39 4.707a1 1 0 1 0 1.414 1.414l2.293-2.293v7.586a1 1 0 1 0 2 0V3.828L8.39 6.121a.997.997 0 0 0 1.414 0 .999.999 0 0 0 0-1.414L5.097 0z"/></symbol>
<symbol viewBox="0 0 10.023765563964844 14.19476318359375" aria-labelledby="cssi-typcn-chevron-left-title" id="si-typcn-chevron-left"><title id="cssi-typcn-chevron-left-title">icon chevron-left</title><path d="M9.243.78a2 2 0 0 0-2.828 0L0 7.196l6.415 6.414c.39.39.902.586 1.414.586s1.024-.195 1.414-.586a2 2 0 0 0 0-2.828L5.658 7.195l3.585-3.586a2 2 0 0 0 0-2.828z"/></symbol>
<symbol viewBox="0 0 10.023763656616211 14.33717155456543" aria-labelledby="cusi-typcn-chevron-right-title" id="si-typcn-chevron-right"><title id="cusi-typcn-chevron-right-title">icon chevron-right</title><path d="M.78.78a2 2 0 0 0 0 2.829l3.586 3.586L.78 10.78a2 2 0 1 0 2.828 2.828l6.415-6.414L3.609.78A2 2 0 0 0 .78.78z"/></symbol>
<symbol viewBox="0 0 16.000383377075195 18.000385284423828" aria-labelledby="dssi-typcn-document-title" id="si-typcn-document"><title id="dssi-typcn-document-title">icon document</title><path d="M15.707 4.293l-4-4A.996.996 0 0 0 11 0H3C1.346 0 0 1.346 0 3v12c0 1.654 1.346 3 3 3h10c1.654 0 3-1.346 3-3V5a.996.996 0 0 0-.293-.707zM13.586 5H12.5c-.827 0-1.5-.673-1.5-1.5V2.414L13.586 5zM13 16H3a1 1 0 0 1-1-1V3a1 1 0 0 1 1-1h7v1.5C10 4.88 11.121 6 12.5 6H14v9a1 1 0 0 1-1 1z"/></symbol>
<symbol viewBox="0 0 16 20" aria-labelledby="epsi-typcn-flow-children-title" id="si-typcn-flow-children"><title id="epsi-typcn-flow-children-title">icon flow-children</title><path d="M13 14a2.99 2.99 0 0 0-2.816 2H7c-1.654 0-3-1.346-3-3V9.975A4.954 4.954 0 0 0 7 11h3.184A2.99 2.99 0 0 0 13 13a3 3 0 1 0 0-6 2.99 2.99 0 0 0-2.816 2H7C5.346 9 4 7.654 4 6v-.184A2.99 2.99 0 0 0 6 3a3 3 0 1 0-6 0 2.99 2.99 0 0 0 2 2.816V13c0 2.757 2.243 5 5 5h3.184A2.99 2.99 0 0 0 13 20a3 3 0 1 0 0-6zm0-5a1.001 1.001 0 1 1-1 1c0-.551.448-1 1-1zM3 2a1.001 1.001 0 1 1-1 1c0-.551.448-1 1-1zm10 16a1.001 1.001 0 0 1 0-2 1.001 1.001 0 0 1 0 2z"/></symbol>
<symbol viewBox="0 0 16 20" aria-labelledby="eqsi-typcn-flow-merge-title" id="si-typcn-flow-merge"><title id="eqsi-typcn-flow-merge-title">icon flow-merge</title><path d="M14 14.184v-1.851c0-1.93-1.57-3.5-3.5-3.5-.827 0-1.5-.673-1.5-1.5V5.816A2.997 2.997 0 0 0 11 3c0-1.654-1.346-3-3-3S5 1.346 5 3c0 1.302.839 2.401 2 2.815v1.518c0 .827-.673 1.5-1.5 1.5-1.93 0-3.5 1.57-3.5 3.5v1.851A2.997 2.997 0 0 0 0 17c0 1.654 1.346 3 3 3s3-1.346 3-3a2.997 2.997 0 0 0-2-2.816v-1.851c0-.827.673-1.5 1.5-1.5.979 0 1.864-.407 2.5-1.058a3.487 3.487 0 0 0 2.5 1.058c.827 0 1.5.673 1.5 1.5v1.851A2.997 2.997 0 0 0 10 17c0 1.654 1.346 3 3 3s3-1.346 3-3a2.997 2.997 0 0 0-2-2.816zM3 18a1.001 1.001 0 0 1 0-2 1.001 1.001 0 0 1 0 2zM8 2a1.001 1.001 0 1 1-1 1c0-.551.448-1 1-1zm5 16a1.001 1.001 0 0 1 0-2 1.001 1.001 0 0 1 0 2z"/></symbol>
<symbol viewBox="0 0 16 20" aria-labelledby="ersi-typcn-flow-parallel-title" id="si-typcn-flow-parallel"><title id="ersi-typcn-flow-parallel-title">icon flow-parallel</title><path d="M14 14.184V5.816A2.997 2.997 0 0 0 16 3c0-1.654-1.346-3-3-3s-3 1.346-3 3c0 1.302.839 2.401 2 2.815v8.369A2.997 2.997 0 0 0 10 17c0 1.654 1.346 3 3 3s3-1.346 3-3a2.997 2.997 0 0 0-2-2.816zM13 2a1.001 1.001 0 1 1-1 1c0-.551.448-1 1-1zm0 16a1.001 1.001 0 0 1 0-2 1.001 1.001 0 0 1 0 2zM6 3c0-1.654-1.346-3-3-3S0 1.346 0 3c0 1.302.839 2.401 2 2.815v8.369A2.997 2.997 0 0 0 0 17c0 1.654 1.346 3 3 3s3-1.346 3-3a2.997 2.997 0 0 0-2-2.816V5.816A2.997 2.997 0 0 0 6 3zM3 2a1.001 1.001 0 1 1-1 1c0-.551.448-1 1-1zm0 16a1.001 1.001 0 0 1 0-2 1.001 1.001 0 0 1 0 2z"/></symbol>
<symbol viewBox="0 0 16 20" aria-labelledby="essi-typcn-flow-switch-title" id="si-typcn-flow-switch"><title id="essi-typcn-flow-switch-title">icon flow-switch</title><path d="M4 14.184V13.5c0-.848.512-1.595 1.287-2.047a7.008 7.008 0 0 1-1.822-1.131C2.561 11.136 2 12.26 2 13.5v.684A2.997 2.997 0 0 0 0 17c0 1.654 1.346 3 3 3s3-1.346 3-3a2.997 2.997 0 0 0-2-2.816zM3 18a1.001 1.001 0 0 1 0-2 1.001 1.001 0 0 1 0 2zm9-12.185v.351c0 .985-.535 1.852-1.345 2.36a7.016 7.016 0 0 1 1.823 1.1C13.414 8.748 14 7.524 14 6.167v-.351A2.997 2.997 0 0 0 16 3c0-1.654-1.346-3-3-3s-3 1.346-3 3c0 1.302.839 2.401 2 2.815zM13 2a1.001 1.001 0 1 1-1 1c0-.551.448-1 1-1zm.935 12.164C13.525 11.251 11.024 9 8 9a4.004 4.004 0 0 1-3.92-3.209A3 3 0 0 0 6 3c0-1.654-1.346-3-3-3S0 1.346 0 3c0 1.326.87 2.44 2.065 2.836C2.475 8.749 4.976 11 8 11a4.004 4.004 0 0 1 3.92 3.209A3 3 0 0 0 10 17c0 1.654 1.346 3 3 3s3-1.346 3-3c0-1.326-.87-2.44-2.065-2.836zM3 2a1.001 1.001 0 1 1-1 1c0-.551.448-1 1-1zm10 16a1.001 1.001 0 0 1 0-2 1.001 1.001 0 0 1 0 2z"/></symbol>
<symbol viewBox="0 0 21.100000381469727 16" aria-labelledby="ewsi-typcn-folder-open-title" id="si-typcn-folder-open"><title id="ewsi-typcn-folder-open-title">icon folder-open</title><path d="M20.3 4h-2.4c-.4-1.2-1.5-2-2.8-2h-6c0-1.1-.9-2-2-2H3C1.3 0 0 1.3 0 3v10c0 1.7 1.3 3 3 3h12c1.7 0 3.4-1.3 3.8-3L21 5c.1-.6-.2-1-.7-1zM2 5V3c0-.6.4-1 1-1h4c0 1.1.9 2 2 2h6c.6 0 1 .4 1 1H4.9c-.6 0-1.1.4-1.3 1L2 12.3V5zm14.9 7.5c-.2.8-1.1 1.5-1.9 1.5H3s-.4-.2-.2-.8l1.9-7c0-.1.2-.2.3-.2h13.7l-1.8 6.5z"/></symbol>
<symbol viewBox="0 0 18 16" aria-labelledby="etsi-typcn-folder-title" id="si-typcn-folder"><title id="etsi-typcn-folder-title">icon folder</title><path d="M15 2H9a2 2 0 0 0-2-2H3C1.346 0 0 1.346 0 3v10c0 1.654 1.346 3 3 3h12c1.654 0 3-1.346 3-3V5c0-1.654-1.346-3-3-3zM3 2h4a2 2 0 0 0 2 2h6a1 1 0 0 1 1 1H2V3a1 1 0 0 1 1-1zm12 12H3a1 1 0 0 1-1-1V6h14v7a1 1 0 0 1-1 1z"/></symbol>
<symbol viewBox="0 0 13.427289009094238 13.070080757141113" aria-labelledby="kzsi-typcn-tick-title" id="si-typcn-tick"><title id="kzsi-typcn-tick-title">icon tick</title><path d="M12.114.321a1.999 1.999 0 0 0-2.72.777L5.681 7.78 3.556 5.655A2 2 0 1 0 .728 8.483l4 4c.378.38.888.587 1.414.587l.277-.02a2 2 0 0 0 1.471-1.009l5-9a2 2 0 0 0-.776-2.72z"/></symbol>
<symbol viewBox="0 0 12.337194442749023 12.33717155456543" aria-labelledby="ldsi-typcn-times-title" id="si-typcn-times"><title id="ldsi-typcn-times-title">icon times</title><path d="M11.556.78a2 2 0 0 0-2.828 0L6.142 3.368 3.556.78A2 2 0 1 0 .728 3.609l2.585 2.586L.728 8.78a2 2 0 1 0 2.828 2.828l2.586-2.586 2.586 2.586c.39.39.902.586 1.414.586s1.024-.195 1.414-.586a2 2 0 0 0 0-2.828L8.971 6.195l2.585-2.586a2 2 0 0 0 0-2.828z"/></symbol>
<symbol viewBox="0 0 16.807811737060547 16.80500030517578" aria-labelledby="mxsi-typcn-zoom-outline-title" id="si-typcn-zoom-outline"><title id="mxsi-typcn-zoom-outline-title">icon zoom-outline</title><path d="M9.808 4a3.001 3.001 0 0 1 0 6 3.001 3.001 0 0 1 0-6m0-1c-2.206 0-4 1.794-4 4s1.794 4 4 4 4-1.794 4-4-1.794-4-4-4zM.003 13.674a3.134 3.134 0 0 0 3.13 3.131 3.28 3.28 0 0 0 2.105-.783l2.397-2.386A6.887 6.887 0 0 0 9.808 14c3.86 0 7-3.141 7-7s-3.14-7-7-7-7 3.141-7 7c0 .761.136 1.486.364 2.173L.927 11.456a3.099 3.099 0 0 0-.924 2.218zm6.459-1.694L3.95 14.491a1.272 1.272 0 0 1-.816.313 1.131 1.131 0 0 1-1.131-1.131c0-.311.127-.594.332-.797l2.492-2.531c.435.645.99 1.2 1.635 1.635zm3.346.02c-2.757 0-5-2.243-5-5s2.243-5 5-5 5 2.243 5 5-2.243 5-5 5z"/></symbol>
  </defs>
</svg>
