<?xml version="1.0" encoding="utf-8"?>
<svg xmlns="http://www.w3.org/2000/svg" xmlns:xlink="http://www.w3.org/1999/xlink" version="1.1" style="width:0;height:0;position:absolute;overflow:hidden;">
  <defs>
<symbol viewBox="0 0 46 30" aria-labelledby="asrsi-windows-image-landscape-title" id="si-windows-image-landscape"><title id="asrsi-windows-image-landscape-title">icon image-landscape</title><path d="M0 0h46v30H0V0zm3 3v24h40V3H3zm8 22l6.083-6.667L20.25 21.5 32.917 8.833l4.75 4.75L41 10v15H11zm2.083-18.083A6.333 6.333 0 0 1 6.75 13.25c-.547 0-1.244-.12-1.75-.25V5h7.667c.13.506.416 1.37.416 1.917z"/></symbol>
<symbol viewBox="0 0 38 38" aria-labelledby="avfsi-windows-layout-collapse-left-variant-title" id="si-windows-layout-collapse-left-variant"><title id="avfsi-windows-layout-collapse-left-variant-title">icon layout-collapse-left-variant</title><path d="M38 0H0v38h38V0zM3 35V3h32v32H3zM5 5v28h17V21h-9.667L16 26h-4l-5-7 5-7h4l-3.667 5H22V5H5z"/></symbol>
<symbol viewBox="0 0 38 38" aria-labelledby="avesi-windows-layout-collapse-left-title" id="si-windows-layout-collapse-left"><title id="avesi-windows-layout-collapse-left-title">icon layout-collapse-left</title><path d="M38 0v38H0V0h38zM3 35h32V3H3v32zM5 5h12v28H5V5zm28 12h-8.667L28 12h-4l-5 7 5 7h4l-3.667-5H33v-4z"/></symbol>
<symbol viewBox="0 0 38 38" aria-labelledby="avhsi-windows-layout-collapse-right-variant-title" id="si-windows-layout-collapse-right-variant"><title id="avhsi-windows-layout-collapse-right-variant-title">icon layout-collapse-right-variant</title><path d="M0 0h38v38H0V0zm35 35V3H3v32h32zM33 5v28H16V21h9.667L22 26h4l5-7-5-7h-4l3.667 5H16V5h17z"/></symbol>
<symbol viewBox="0 0 38 38" aria-labelledby="avgsi-windows-layout-collapse-right-title" id="si-windows-layout-collapse-right"><title id="avgsi-windows-layout-collapse-right-title">icon layout-collapse-right</title><path d="M0 0v38h38V0H0zm35 35H3V3h32v32zM33 5H22v28h11V5zM5 17h9.667L11 12h4l5 7-5 7h-4l3.667-5H5v-4z"/></symbol>
<symbol viewBox="0 0 38 38" aria-labelledby="avjsi-windows-layout-expand-left-variant-title" id="si-windows-layout-expand-left-variant"><title id="avjsi-windows-layout-expand-left-variant-title">icon layout-expand-left-variant</title><path d="M38 0H0v38h38V0zM3 35V3h32v32H3zM16 5v28h17V21h-9.667L27 26h-4l-5-7 5-7h4l-3.667 5H33V5H16z"/></symbol>
<symbol viewBox="0 0 38 38" aria-labelledby="avisi-windows-layout-expand-left-title" id="si-windows-layout-expand-left"><title id="avisi-windows-layout-expand-left-title">icon layout-expand-left</title><path d="M0 0v38h38V0H0zm35 35H3V3h32v32zM33 5H21v28h12V5zM19 17h-8.667L14 12h-4l-5 7 5 7h4l-3.667-5H19v-4z"/></symbol>
<symbol viewBox="0 0 38 38" aria-labelledby="avlsi-windows-layout-expand-right-variant-title" id="si-windows-layout-expand-right-variant"><title id="avlsi-windows-layout-expand-right-variant-title">icon layout-expand-right-variant</title><path d="M0 0h38v38H0V0zm35 35V3H3v32h32zM22 5v28H5V21h9.667L11 26h4l5-7-5-7h-4l3.667 5H5V5h17z"/></symbol>
<symbol viewBox="0 0 38 38" aria-labelledby="avksi-windows-layout-expand-right-title" id="si-windows-layout-expand-right"><title id="avksi-windows-layout-expand-right-title">icon layout-expand-right</title><path d="M38 0v38H0V0h38zM3 35h32V3H3v32zM5 5h12v28H5V5zm14 12h8.667L24 12h4l5 7-5 7h-4l3.667-5H19v-4z"/></symbol>
<symbol viewBox="0 0 44.33399963378906 31.66699981689453" aria-labelledby="axdsi-windows-loop-title" id="si-windows-loop"><title id="axdsi-windows-loop-title">icon loop</title><path d="M0 25.334V0h44.334v25.334H26.521l6.73 6.333H22.958l-10.291-9.5 10.292-9.5H33.25L26.521 19h11.48V6.334H6.333V19h5.937L9.5 22.167l2.374 3.167H0z"/></symbol>
<symbol viewBox="0 0 46 34.91699981689453" aria-labelledby="axrsi-windows-map-title" id="si-windows-map"><title id="axrsi-windows-map-title">icon map</title><path d="M11.708 3.167l11.084 3.167L32.292 0 46 3.417v27l-13.708-3.5-9.5 6.333-11.084-3.166L0 34.917v-27l11.708-4.75zM11 25.667V8.417l-7 2.75v17.25l7-2.75zm22-20.75v17.25l9 2.5V7.417l-9-2.5zm-10 6v17.5l9-6v-17.5l-9 6zm-11-2.75v17.25l10 2.5v-16.75l-10-3z"/></symbol>
<symbol viewBox="0 0 42.75 39.58300018310547" aria-labelledby="bhdsi-windows-redo-point-title" id="si-windows-redo-point"><title id="bhdsi-windows-redo-point-title">icon redo-point</title><path d="M15.834 14.25a9.5 9.5 0 0 0 0 19h4.75v6.333h-4.75C7.089 39.583 0 32.494 0 23.75 0 15.005 7.09 7.916 15.834 7.916h14.25L22.167 0h9.27L42.75 11.248 31.437 22.166h-9.27l7.917-7.916h-14.25zm9.5 19h6.333v6.333h-6.333V33.25z"/></symbol>
<symbol viewBox="0 0 39 38" aria-labelledby="bhfsi-windows-refresh-clockwise-down-title" id="si-windows-refresh-clockwise-down"><title id="bhfsi-windows-refresh-clockwise-down-title">icon refresh-clockwise-down</title><path d="M39 23.5V30l-9 8-9-8.5v-6l6 5.29V16.5C27 10.701 22.299 6 16.5 6S6 10.701 6 16.5c0 5.631 4.433 10.227 10 10.488v6.005C7.119 32.728 0 25.445 0 16.5 0 7.387 7.387 0 16.5 0S33 7.387 33 16.5v12.375l6-5.375z"/></symbol>
<symbol viewBox="0 0 39 38" aria-labelledby="bhgsi-windows-refresh-clockwise-up-title" id="si-windows-refresh-clockwise-up"><title id="bhgsi-windows-refresh-clockwise-up-title">icon refresh-clockwise-up</title><path d="M0 14.5V8l9-8 9 8.5v6l-6-5.29V21.5C12 27.299 16.701 32 22.5 32S33 27.299 33 21.5c0-5.631-4.433-10.227-10-10.488V5.007c8.881.265 16 7.548 16 16.493C39 30.613 31.613 38 22.5 38S6 30.613 6 21.5V9.125L0 14.5z"/></symbol>
<symbol viewBox="0 0 39 38" aria-labelledby="bhhsi-windows-refresh-counterclockwise-down-title" id="si-windows-refresh-counterclockwise-down"><title id="bhhsi-windows-refresh-counterclockwise-down-title">icon refresh-counterclockwise-down</title><path d="M0 23.5V30l9 8 9-8.5v-6l-6 5.29V16.5C12 10.701 16.701 6 22.5 6S33 10.701 33 16.5c0 5.631-4.433 10.227-10 10.488v6.005c8.881-.265 16-7.548 16-16.493C39 7.387 31.613 0 22.5 0S6 7.387 6 16.5v12.375L0 23.5z"/></symbol>
<symbol viewBox="0 0 39 38" aria-labelledby="bhisi-windows-refresh-counterclockwise-up-title" id="si-windows-refresh-counterclockwise-up"><title id="bhisi-windows-refresh-counterclockwise-up-title">icon refresh-counterclockwise-up</title><path d="M39 14.5V8l-9-8-9 8.5v6l6-5.29V21.5C27 27.299 22.299 32 16.5 32S6 27.299 6 21.5c0-5.631 4.433-10.227 10-10.488V5.007C7.119 5.272 0 12.555 0 21.5 0 30.613 7.387 38 16.5 38S33 30.613 33 21.5V9.125l6 5.375z"/></symbol>
  </defs>
</svg>
